<svg width="36" height="36" viewBox="0 0 36 36" fill="none" xmlns="http://www.w3.org/2000/svg">
<rect x="0.83667" y="0.418457" width="35.1633" height="35.1633" rx="9.70748" fill="#113A5D"/>
<path d="M12.3337 17.5997C12.8547 17.5997 13.281 18.026 13.281 18.547V23.4923C13.281 24.0133 13.7073 24.4397 14.2284 24.4397H23.7021C24.2231 24.4397 24.6495 24.0133 24.6495 23.4923V13.8102C24.6495 13.2891 24.2231 12.8628 23.7021 12.8628H18.9652C18.4442 12.8628 18.0179 12.4365 18.0179 11.9155C18.0179 11.3944 18.4442 10.9681 18.9652 10.9681H24.6495C25.6916 10.9681 26.5442 11.8207 26.5442 12.8628V24.2312C26.5442 25.2733 25.6916 26.126 24.6495 26.126H13.281C12.2389 26.126 11.3863 25.2733 11.3863 24.2312V18.547C11.3863 18.026 11.8126 17.5997 12.3337 17.5997ZM9.47261 10.9681H11.3863V9.0544C11.3863 8.54282 11.8031 8.12598 12.3147 8.12598H12.3431C12.8642 8.12598 13.281 8.54282 13.281 9.0544V10.9681H15.1852C15.6968 10.9681 16.1137 11.3849 16.1231 11.8965V11.9249C16.1231 12.446 15.7063 12.8628 15.1852 12.8628H13.281V14.767C13.281 15.2786 12.8642 15.7049 12.3431 15.6955H12.3147C11.8031 15.6955 11.3863 15.2786 11.3863 14.767V12.8628H9.47261C8.96103 12.8628 8.54419 12.446 8.54419 11.9344V11.8965C8.54419 11.3849 8.96103 10.9681 9.47261 10.9681Z" fill="white"/>
<path d="M16.1231 14.7576H21.8073C22.3283 14.7576 22.7546 15.1839 22.7546 15.7049C22.7546 16.226 22.3283 16.6523 21.8073 16.6523H16.1231C15.602 16.6523 15.1757 16.226 15.1757 15.7049C15.1757 15.1839 15.602 14.7576 16.1231 14.7576ZM16.1231 17.5997H21.8073C22.3283 17.5997 22.7546 18.026 22.7546 18.547C22.7546 19.0681 22.3283 19.4944 21.8073 19.4944H16.1231C15.602 19.4944 15.1757 19.0681 15.1757 18.547C15.1757 18.026 15.602 17.5997 16.1231 17.5997ZM16.1231 20.4418H21.8073C22.3283 20.4418 22.7546 20.8681 22.7546 21.3891C22.7546 21.9102 22.3283 22.3365 21.8073 22.3365H16.1231C15.602 22.3365 15.1757 21.9102 15.1757 21.3891C15.1757 20.8681 15.602 20.4418 16.1231 20.4418Z" fill="white"/>
</svg>
