<svg width="49" height="49" viewBox="0 0 49 49" fill="none" xmlns="http://www.w3.org/2000/svg">
<g filter="url(#filter0_d_98_1755)">
<rect x="4.5" width="40" height="40" rx="5" fill="white" shape-rendering="crispEdges"/>
<path fill-rule="evenodd" clip-rule="evenodd" d="M34.1254 15.1868V28.2493C34.1254 28.9786 33.8357 29.6781 33.3199 30.1938C32.8042 30.7095 32.1047 30.9993 31.3754 30.9993H27.2504V29.6243H31.3754C31.7401 29.6243 32.0898 29.4794 32.3477 29.2215C32.6055 28.9637 32.7504 28.6139 32.7504 28.2493V15.1868H30.0004C29.4534 15.1868 28.9288 14.9695 28.542 14.5827C28.1552 14.1959 27.9379 13.6713 27.9379 13.1243V10.3743H20.3754C20.0107 10.3743 19.661 10.5191 19.4031 10.777C19.1453 11.0349 19.0004 11.3846 19.0004 11.7493V24.1243H17.6254V11.7493C17.6254 11.0199 17.9151 10.3204 18.4308 9.80472C18.9466 9.289 19.646 8.99927 20.3754 8.99927H27.9379L34.1254 15.1868ZM19.3826 27.0448C19.3605 26.8094 19.2952 26.5801 19.1901 26.3683C19.0844 26.1552 18.9377 25.965 18.7584 25.8086C18.5648 25.6413 18.3407 25.5129 18.0984 25.4305C17.817 25.3347 17.5211 25.2882 17.2239 25.293C16.7275 25.293 16.3026 25.3975 15.9506 25.6079C15.6033 25.8118 15.3243 26.1143 15.149 26.4769C14.9588 26.8855 14.8652 27.3325 14.8754 27.7831V28.4789C14.8754 28.8529 14.9235 29.1939 15.0198 29.5033C15.116 29.8113 15.2631 30.0766 15.4598 30.3008C15.655 30.5235 15.8998 30.6968 16.1926 30.8191C16.4883 30.9401 16.8334 31.0006 17.228 31.0006C17.5965 31.0006 17.9155 30.9498 18.1864 30.848C18.434 30.7625 18.6595 30.6232 18.8469 30.4401C19.0342 30.2571 19.1787 30.0348 19.2699 29.7893C19.3593 29.55 19.4033 29.297 19.4033 29.0316V27.9358H17.2363V28.7456H18.3679V29.0963C18.3679 29.2778 18.3266 29.4455 18.2441 29.5954C18.1566 29.7501 18.0263 29.8761 17.8688 29.9584C17.6732 30.0531 17.4575 30.0984 17.2404 30.0904C16.9873 30.1007 16.7374 30.0304 16.5268 29.8896C16.3337 29.7462 16.1877 29.5485 16.1074 29.3218C16.0142 29.0498 15.9695 28.7636 15.9754 28.4761V27.79C15.9754 27.2881 16.0826 26.899 16.2971 26.6213C16.5144 26.3463 16.8196 26.2074 17.2115 26.2074C17.3514 26.2056 17.4906 26.226 17.624 26.2679C17.7478 26.3091 17.8578 26.3655 17.9485 26.4411C18.042 26.5129 18.1213 26.6015 18.1823 26.7024C18.2458 26.8086 18.2909 26.9248 18.3156 27.0461H19.3826V27.0448ZM21.243 30.8961V25.3975H20.1554V30.8975H21.2416L21.243 30.8961ZM23.2959 28.7099V30.8961H22.2083V25.3975H25.7104V26.2954H23.2959V27.8313H25.5028V28.7085H23.2959V28.7099Z" fill="#113A5D"/>
</g>
<defs>
<filter id="filter0_d_98_1755" x="0.5" y="0" width="48" height="49" filterUnits="userSpaceOnUse" color-interpolation-filters="sRGB">
<feFlood flood-opacity="0" result="BackgroundImageFix"/>
<feColorMatrix in="SourceAlpha" type="matrix" values="0 0 0 0 0 0 0 0 0 0 0 0 0 0 0 0 0 0 127 0" result="hardAlpha"/>
<feOffset dy="5"/>
<feGaussianBlur stdDeviation="2"/>
<feComposite in2="hardAlpha" operator="out"/>
<feColorMatrix type="matrix" values="0 0 0 0 0.8625 0 0 0 0 0.8625 0 0 0 0 0.8625 0 0 0 1 0"/>
<feBlend mode="normal" in2="BackgroundImageFix" result="effect1_dropShadow_98_1755"/>
<feBlend mode="normal" in="SourceGraphic" in2="effect1_dropShadow_98_1755" result="shape"/>
</filter>
</defs>
</svg>
