<svg width="34" height="37" viewBox="0 0 34 37" fill="none" xmlns="http://www.w3.org/2000/svg">
<circle cx="13.1666" cy="13.6665" r="5.75" stroke="white" stroke-linecap="round"/>
<path d="M20.5474 14.4377C21.1718 13.3562 22.2002 12.5671 23.4064 12.2439C24.6125 11.9207 25.8977 12.0899 26.9791 12.7143C28.0606 13.3387 28.8497 14.367 29.1729 15.5732C29.4961 16.7794 29.3269 18.0646 28.7025 19.146C28.0781 20.2274 27.0497 21.0165 25.8436 21.3397C24.6374 21.6629 23.3522 21.4937 22.2708 20.8694C21.1894 20.245 20.4003 19.2166 20.0771 18.0104C19.7539 16.8043 19.9231 15.5191 20.5474 14.4377L20.5474 14.4377Z" stroke="white"/>
<path d="M24.5658 34.5496L24.0681 34.5973L24.5658 34.5496ZM23.625 35.0415H2.70835V36.0415H23.625V35.0415ZM2.2653 34.5973C2.40389 33.1509 2.87322 30.3677 4.43869 27.9591C5.98455 25.5808 8.61218 23.5415 13.1667 23.5415V22.5415C8.24407 22.5415 5.31381 24.7778 3.60023 27.4142C1.90626 30.0204 1.4146 32.9913 1.26986 34.5019L2.2653 34.5973ZM13.1667 23.5415C17.7212 23.5415 20.3488 25.5808 21.8947 27.9591C23.4601 30.3677 23.9295 33.1509 24.0681 34.5973L25.0635 34.5019C24.9188 32.9913 24.4271 30.0204 22.7331 27.4142C21.0196 24.7778 18.0893 22.5415 13.1667 22.5415V23.5415ZM2.70835 35.0415C2.42165 35.0415 2.24349 34.8249 2.2653 34.5973L1.26986 34.5019C1.18632 35.3738 1.89047 36.0415 2.70835 36.0415V35.0415ZM23.625 36.0415C24.4429 36.0415 25.147 35.3738 25.0635 34.5019L24.0681 34.5973C24.0899 34.8249 23.9117 35.0415 23.625 35.0415V36.0415Z" fill="white"/>
<path d="M32.791 34.4543L33.2824 34.3621L32.791 34.4543ZM21.0841 26.1266L20.8161 25.7045L20.301 26.0314L20.7228 26.4723L21.0841 26.1266ZM24.5658 34.5498L25.0635 34.5021L24.5658 34.5498ZM17.3968 35.0417C17.3969 35.0417 17.3969 35.0417 17.3965 35.0417C17.3962 35.0417 17.3955 35.0417 17.3948 35.0417V36.0417C17.3947 36.0417 17.3947 36.0417 17.3951 36.0417C17.3953 36.0417 17.396 36.0417 17.3968 36.0417V35.0417ZM31.8534 35.0417H17.3968V36.0417H31.8534V35.0417ZM32.2996 34.5466C32.346 34.7942 32.1591 35.0417 31.8534 35.0417V36.0417C32.731 36.0417 33.4542 35.2774 33.2824 34.3621L32.2996 34.5466ZM24.6251 25.625C27.3103 25.625 29.0885 27.1446 30.2826 29.0538C31.4839 30.9745 32.0534 33.2353 32.2996 34.5466L33.2824 34.3621C33.0275 33.004 32.4293 30.6002 31.1305 28.5235C29.8245 26.4355 27.7703 24.625 24.6251 24.625V25.625ZM21.352 26.5488C22.2489 25.9796 23.3244 25.625 24.6251 25.625V24.625C23.1302 24.625 21.8695 25.036 20.8161 25.7045L21.352 26.5488ZM20.7228 26.4723C23.2376 29.1011 23.8984 32.827 24.068 34.5975L25.0635 34.5021C24.8884 32.6746 24.2012 28.6618 21.4454 25.781L20.7228 26.4723ZM24.068 34.5975C24.0899 34.8251 23.9117 35.0417 23.625 35.0417V36.0417C24.4429 36.0417 25.147 35.374 25.0635 34.5021L24.068 34.5975ZM23.625 35.0417H17.3948V36.0417H23.625V35.0417Z" fill="white"/>
<rect x="12.75" y="2.25" width="4.5" height="0.5" rx="0.25" stroke="white" stroke-width="0.5" stroke-linecap="round"/>
<rect x="15.25" y="0.25" width="4.5" height="0.5" rx="0.25" transform="rotate(90 15.25 0.25)" stroke="white" stroke-width="0.5" stroke-linecap="round"/>
</svg>
