<svg width="49" height="49" viewBox="0 0 49 49" fill="none" xmlns="http://www.w3.org/2000/svg">
<g filter="url(#filter0_d_98_1742)">
<rect x="4.5" width="40" height="40" rx="5" fill="white" shape-rendering="crispEdges"/>
<path d="M32.2917 10.375H16.7083C15.6958 10.375 14.875 11.1958 14.875 12.2083V27.7917C14.875 28.8042 15.6958 29.625 16.7083 29.625H32.2917C33.3042 29.625 34.125 28.8042 34.125 27.7917V12.2083C34.125 11.1958 33.3042 10.375 32.2917 10.375Z" stroke="#113A5D" stroke-width="2"/>
<path d="M21.2917 19.0833C22.5573 19.0833 23.5833 18.0573 23.5833 16.7917C23.5833 15.526 22.5573 14.5 21.2917 14.5C20.026 14.5 19 15.526 19 16.7917C19 18.0573 20.026 19.0833 21.2917 19.0833Z" stroke="#113A5D" stroke-width="2"/>
<path d="M21.5209 25.9583L25.7121 20.7692C26.0473 20.3541 26.6649 20.3119 27.0534 20.6776L34.125 27.3333" stroke="#113A5D" stroke-width="2"/>
<path d="M15.5625 29.1666L18.9845 24.9841C19.3492 24.5385 20.0296 24.5354 20.3982 24.9778L24.2708 29.6249" stroke="#113A5D" stroke-width="2"/>
</g>
<defs>
<filter id="filter0_d_98_1742" x="0.5" y="0" width="48" height="49" filterUnits="userSpaceOnUse" color-interpolation-filters="sRGB">
<feFlood flood-opacity="0" result="BackgroundImageFix"/>
<feColorMatrix in="SourceAlpha" type="matrix" values="0 0 0 0 0 0 0 0 0 0 0 0 0 0 0 0 0 0 127 0" result="hardAlpha"/>
<feOffset dy="5"/>
<feGaussianBlur stdDeviation="2"/>
<feComposite in2="hardAlpha" operator="out"/>
<feColorMatrix type="matrix" values="0 0 0 0 0.8625 0 0 0 0 0.8625 0 0 0 0 0.8625 0 0 0 1 0"/>
<feBlend mode="normal" in2="BackgroundImageFix" result="effect1_dropShadow_98_1742"/>
<feBlend mode="normal" in="SourceGraphic" in2="effect1_dropShadow_98_1742" result="shape"/>
</filter>
</defs>
</svg>
