<svg width="34" height="36" viewBox="0 0 34 36" fill="none" xmlns="http://www.w3.org/2000/svg">
<rect x="0.346069" y="0.5" width="33.6539" height="35" rx="9.70748" fill="#113A5D"/>
<path d="M20.3166 20.4724C20.7755 20.2259 21.3007 20.0856 21.86 20.0856H21.8619C21.9187 20.0856 21.9453 20.0174 21.9036 19.9795C21.3219 19.4575 20.6575 19.0358 19.9374 18.7319C19.9299 18.7281 19.9223 18.7262 19.9147 18.7224C21.0921 17.8673 21.8581 16.4776 21.8581 14.9096C21.8581 12.3121 19.7573 10.2075 17.1655 10.2075C14.5737 10.2075 12.4748 12.3121 12.4748 14.9096C12.4748 16.4776 13.2408 17.8673 14.4201 18.7224C14.4125 18.7262 14.4049 18.7281 14.3974 18.7319C13.5498 19.0902 12.7896 19.6041 12.1354 20.2601C11.4851 20.9092 10.9673 21.6788 10.6111 22.5258C10.2605 23.3552 10.0713 24.2439 10.0536 25.1441C10.0531 25.1644 10.0567 25.1845 10.0641 25.2033C10.0715 25.2222 10.0826 25.2394 10.0967 25.2539C10.1108 25.2683 10.1277 25.2799 10.1464 25.2877C10.165 25.2956 10.1851 25.2996 10.2053 25.2996H11.341C11.4225 25.2996 11.4908 25.2333 11.4927 25.1517C11.5306 23.688 12.1165 22.3172 13.1536 21.2782C14.2248 20.2032 15.6506 19.6116 17.1674 19.6116C18.2424 19.6116 19.2738 19.9093 20.1631 20.4667C20.1859 20.4811 20.2121 20.4892 20.2391 20.4902C20.266 20.4912 20.2928 20.485 20.3166 20.4724ZM17.1674 18.1707C16.299 18.1707 15.4819 17.8313 14.8657 17.2151C14.5625 16.9127 14.3221 16.5533 14.1585 16.1576C13.9948 15.7619 13.911 15.3378 13.912 14.9096C13.912 14.0393 14.2514 13.2202 14.8657 12.6041C15.48 11.9879 16.2971 11.6485 17.1674 11.6485C18.0377 11.6485 18.8529 11.9879 19.4691 12.6041C19.7723 12.9064 20.0127 13.2658 20.1763 13.6615C20.34 14.0572 20.4238 14.4814 20.4228 14.9096C20.4228 15.7798 20.0834 16.5989 19.4691 17.2151C18.8529 17.8313 18.0358 18.1707 17.1674 18.1707ZM24.1409 22.6831H22.5482V21.0905C22.5482 21.0071 22.48 20.9388 22.3965 20.9388H21.3348C21.2514 20.9388 21.1831 21.0071 21.1831 21.0905V22.6831H19.5905C19.507 22.6831 19.4388 22.7514 19.4388 22.8348V23.8966C19.4388 23.98 19.507 24.0483 19.5905 24.0483H21.1831V25.6409C21.1831 25.7243 21.2514 25.7926 21.3348 25.7926H22.3965C22.48 25.7926 22.5482 25.7243 22.5482 25.6409V24.0483H24.1409C24.2243 24.0483 24.2925 23.98 24.2925 23.8966V22.8348C24.2925 22.7514 24.2243 22.6831 24.1409 22.6831Z" fill="#FCFCFC"/>
</svg>
