<svg width="49" height="49" viewBox="0 0 49 49" fill="none" xmlns="http://www.w3.org/2000/svg">
<g filter="url(#filter0_d_98_1764)">
<rect x="4.5" width="40" height="40" rx="5" fill="white" shape-rendering="crispEdges"/>
<path d="M32.3126 18.7501C32.5391 18.7501 32.758 18.8322 32.9287 18.9811C33.0995 19.13 33.2105 19.3357 33.2413 19.5601L33.2501 19.6876V20.3126C33.2503 22.4422 32.4452 24.493 30.9965 26.0537C29.5477 27.6145 27.5624 28.5697 25.4387 28.7277L25.4375 31.5628C25.4374 31.8003 25.3472 32.029 25.185 32.2025C25.0229 32.3761 24.8009 32.4816 24.5639 32.4978C24.3269 32.514 24.0926 32.4396 23.9083 32.2897C23.7241 32.1398 23.6036 31.9256 23.5712 31.6903L23.5625 31.5628V28.7277C21.4893 28.5738 19.546 27.6599 18.1052 26.1614C16.6643 24.6629 15.8274 22.6852 15.7549 20.6076L15.7499 20.3126V19.6876C15.75 19.4501 15.8402 19.2215 16.0023 19.0479C16.1645 18.8743 16.3865 18.7688 16.6235 18.7526C16.8605 18.7364 17.0948 18.8108 17.279 18.9607C17.4633 19.1106 17.5838 19.3248 17.6161 19.5601L17.6249 19.6876V20.3126C17.6248 22.0065 18.2796 23.6348 19.4523 24.857C20.6251 26.0792 22.2251 26.8005 23.9175 26.8702L24.1875 26.8752H24.8125C26.5063 26.8754 28.1346 26.2206 29.3568 25.0478C30.579 23.875 31.3004 22.2751 31.3701 20.5826L31.3751 20.3126V19.6876C31.3751 19.439 31.4738 19.2005 31.6496 19.0247C31.8255 18.8489 32.0639 18.7501 32.3126 18.7501ZM24.5 7.5C25.8261 7.5 27.0979 8.02679 28.0356 8.96448C28.9732 9.90218 29.5 11.174 29.5 12.5001V20.0001C29.5 21.3262 28.9732 22.598 28.0356 23.5357C27.0979 24.4734 25.8261 25.0002 24.5 25.0002C23.1739 25.0002 21.9021 24.4734 20.9644 23.5357C20.0267 22.598 19.4999 21.3262 19.4999 20.0001V12.5001C19.4999 11.174 20.0267 9.90218 20.9644 8.96448C21.9021 8.02679 23.1739 7.5 24.5 7.5ZM24.5 9.37502C23.6712 9.37502 22.8763 9.70427 22.2902 10.2903C21.7042 10.8764 21.3749 11.6712 21.3749 12.5001V20.0001C21.3749 20.829 21.7042 21.6238 22.2902 22.2099C22.8763 22.7959 23.6712 23.1252 24.5 23.1252C25.3288 23.1252 26.1237 22.7959 26.7097 22.2099C27.2958 21.6238 27.625 20.829 27.625 20.0001V12.5001C27.625 11.6712 27.2958 10.8764 26.7097 10.2903C26.1237 9.70427 25.3288 9.37502 24.5 9.37502Z" fill="#113A5D"/>
</g>
<defs>
<filter id="filter0_d_98_1764" x="0.5" y="0" width="48" height="49" filterUnits="userSpaceOnUse" color-interpolation-filters="sRGB">
<feFlood flood-opacity="0" result="BackgroundImageFix"/>
<feColorMatrix in="SourceAlpha" type="matrix" values="0 0 0 0 0 0 0 0 0 0 0 0 0 0 0 0 0 0 127 0" result="hardAlpha"/>
<feOffset dy="5"/>
<feGaussianBlur stdDeviation="2"/>
<feComposite in2="hardAlpha" operator="out"/>
<feColorMatrix type="matrix" values="0 0 0 0 0.8625 0 0 0 0 0.8625 0 0 0 0 0.8625 0 0 0 1 0"/>
<feBlend mode="normal" in2="BackgroundImageFix" result="effect1_dropShadow_98_1764"/>
<feBlend mode="normal" in="SourceGraphic" in2="effect1_dropShadow_98_1764" result="shape"/>
</filter>
</defs>
</svg>
