<svg width="38" height="39" viewBox="0 0 38 39" fill="none" xmlns="http://www.w3.org/2000/svg">
<rect x="0.499756" width="37.5002" height="39" rx="18.7501" fill="#113A5D"/>
<path d="M13.4562 10.1473L30.1984 18.1544C30.3676 18.2352 30.5105 18.3623 30.6106 18.5209C30.7106 18.6795 30.7637 18.8632 30.7637 19.0507C30.7637 19.2382 30.7106 19.4219 30.6106 19.5806C30.5105 19.7392 30.3676 19.8662 30.1984 19.947L13.4562 27.9542C13.2846 28.0364 13.093 28.0676 12.9041 28.044C12.7153 28.0204 12.5372 27.9431 12.3911 27.8212C12.2449 27.6993 12.1368 27.538 12.0797 27.3565C12.0226 27.175 12.0188 26.9809 12.0689 26.7973L14.1825 19.0507L12.0689 11.3042C12.0188 11.1206 12.0226 10.9265 12.0797 10.7449C12.1368 10.5634 12.2449 10.4021 12.3911 10.2802C12.5372 10.1584 12.7153 10.081 12.9041 10.0575C13.093 10.0339 13.2846 10.0651 13.4562 10.1473ZM13.3331 11.4099L15.2584 18.4715L23.9529 18.4723C24.097 18.4723 24.2362 18.5246 24.3448 18.6194C24.4533 18.7142 24.5239 18.8451 24.5433 18.988L24.5488 19.0682C24.5488 19.2122 24.4967 19.3514 24.402 19.4599C24.3074 19.5684 24.1766 19.639 24.0339 19.6586L23.9529 19.6642H15.2489L13.3339 26.6916L29.3101 19.0507L13.3331 11.4099Z" fill="white"/>
</svg>
