<svg width="26" height="26" viewBox="0 0 26 26" fill="none" xmlns="http://www.w3.org/2000/svg">
<path fill-rule="evenodd" clip-rule="evenodd" d="M23.6533 19.1174C23.5849 19.2391 23.5607 19.3811 23.5884 19.5179L24.5124 24.093C24.5928 24.4913 24.2413 24.8428 23.843 24.7624L19.2679 23.8384C19.1311 23.8107 18.9891 23.8349 18.8674 23.9033C17.0591 24.9201 14.9723 25.5 12.75 25.5C5.84642 25.5 0.25 19.9036 0.25 13C0.25 6.09642 5.84642 0.5 12.75 0.5C19.6536 0.5 25.25 6.09642 25.25 13C25.25 15.2223 24.6701 17.3091 23.6533 19.1174ZM12.75 18.1136C15.5742 18.1136 17.8636 15.8242 17.8636 13C17.8636 10.1758 15.5742 7.88636 12.75 7.88636C9.9258 7.88636 7.63636 10.1758 7.63636 13C7.63636 15.8242 9.9258 18.1136 12.75 18.1136Z" fill="#999999"/>
</svg>
