<svg width="49" height="49" viewBox="0 0 49 49" fill="none" xmlns="http://www.w3.org/2000/svg">
<g filter="url(#filter0_d_98_1753)">
<rect x="4.5" width="40" height="40" rx="5" fill="white" shape-rendering="crispEdges"/>
<path d="M35.1374 12.3846H31.0275L30.0484 9.64066C29.9807 9.4529 29.8568 9.2906 29.6934 9.17593C29.5301 9.06127 29.3353 8.99982 29.1357 9H19.8643C19.4563 9 19.0907 9.25687 18.9547 9.64066L17.9725 12.3846H13.8627C12.5269 12.3846 11.4451 13.4665 11.4451 14.8022V28.5824C11.4451 29.9181 12.5269 31 13.8627 31H35.1374C36.4731 31 37.555 29.9181 37.555 28.5824V14.8022C37.555 13.4665 36.4731 12.3846 35.1374 12.3846ZM35.3791 28.5824C35.3791 28.7154 35.2703 28.8242 35.1374 28.8242H13.8627C13.7297 28.8242 13.6209 28.7154 13.6209 28.5824V14.8022C13.6209 14.6692 13.7297 14.5604 13.8627 14.5604H19.5047L20.0214 13.1159L20.7135 11.1758H28.2835L28.9756 13.1159L29.4923 14.5604H35.1374C35.2703 14.5604 35.3791 14.6692 35.3791 14.8022V28.5824ZM24.5 16.4945C21.8286 16.4945 19.6648 18.6582 19.6648 21.3297C19.6648 24.0011 21.8286 26.1648 24.5 26.1648C27.1714 26.1648 29.3352 24.0011 29.3352 21.3297C29.3352 18.6582 27.1714 16.4945 24.5 16.4945ZM24.5 24.2308C22.8984 24.2308 21.5989 22.9313 21.5989 21.3297C21.5989 19.728 22.8984 18.4286 24.5 18.4286C26.1017 18.4286 27.4011 19.728 27.4011 21.3297C27.4011 22.9313 26.1017 24.2308 24.5 24.2308Z" fill="#113A5D"/>
</g>
<defs>
<filter id="filter0_d_98_1753" x="0.5" y="0" width="48" height="49" filterUnits="userSpaceOnUse" color-interpolation-filters="sRGB">
<feFlood flood-opacity="0" result="BackgroundImageFix"/>
<feColorMatrix in="SourceAlpha" type="matrix" values="0 0 0 0 0 0 0 0 0 0 0 0 0 0 0 0 0 0 127 0" result="hardAlpha"/>
<feOffset dy="5"/>
<feGaussianBlur stdDeviation="2"/>
<feComposite in2="hardAlpha" operator="out"/>
<feColorMatrix type="matrix" values="0 0 0 0 0.8625 0 0 0 0 0.8625 0 0 0 0 0.8625 0 0 0 1 0"/>
<feBlend mode="normal" in2="BackgroundImageFix" result="effect1_dropShadow_98_1753"/>
<feBlend mode="normal" in="SourceGraphic" in2="effect1_dropShadow_98_1753" result="shape"/>
</filter>
</defs>
</svg>
