<svg width="25" height="24" viewBox="0 0 25 24" fill="none" xmlns="http://www.w3.org/2000/svg">
<path d="M19.4885 5.77772C20.1626 6.78661 20.1626 8.19108 20.1626 11C20.1626 13.8089 20.1626 15.2134 19.4885 16.2223C19.1966 16.659 18.8216 17.034 18.3849 17.3259C17.5035 17.9148 16.3203 17.9892 14.1626 17.9986V18L13.057 20.2111C12.6885 20.9482 11.6367 20.9482 11.2682 20.2111L10.1626 18V17.9986C8.0049 17.9892 6.82167 17.9148 5.94032 17.3259C5.50356 17.034 5.12855 16.659 4.83672 16.2223C4.1626 15.2134 4.1626 13.8089 4.1626 11C4.1626 8.19108 4.1626 6.78661 4.83672 5.77772C5.12855 5.34096 5.50356 4.96596 5.94032 4.67412C6.94921 4 8.35367 4 11.1626 4H13.1626C15.9715 4 17.376 4 18.3849 4.67412C18.8216 4.96596 19.1966 5.34096 19.4885 5.77772Z" stroke="#113A5D" stroke-linecap="round" stroke-linejoin="round"/>
<path d="M9.1626 9L15.1626 9" stroke="#113A5D" stroke-linecap="round" stroke-linejoin="round"/>
<path d="M9.1626 13H12.1626" stroke="#113A5D" stroke-linecap="round" stroke-linejoin="round"/>
</svg>
