<svg width="24" height="26" viewBox="0 0 24 26" fill="none" xmlns="http://www.w3.org/2000/svg">
<path fill-rule="evenodd" clip-rule="evenodd" d="M4.04544 1.92045C4.04544 1.13596 4.68141 0.5 5.4659 0.5C6.25039 0.5 6.88635 1.13596 6.88635 1.92045V2.48864C6.88635 2.58593 6.87658 2.68093 6.85794 2.77273H17.142C17.1234 2.68093 17.1136 2.58593 17.1136 2.48864V1.92045C17.1136 1.13596 17.7496 0.5 18.5341 0.5C19.3186 0.5 19.9545 1.13596 19.9545 1.92045V2.48864C19.9545 2.58593 19.9448 2.68093 19.9261 2.77273H22.2273C22.8549 2.77273 23.3636 3.28149 23.3636 3.90909V24.3636C23.3636 24.9912 22.8549 25.5 22.2273 25.5H1.77272C1.14512 25.5 0.636353 24.9912 0.636353 24.3636V3.90909C0.636353 3.28149 1.14512 2.77273 1.77272 2.77273H4.07385C4.05522 2.68093 4.04544 2.58593 4.04544 2.48864V1.92045ZM15.4091 10.7273C15.4091 12.6101 13.8828 14.1364 12 14.1364C10.1171 14.1364 8.5909 12.6101 8.5909 10.7273C8.5909 8.84449 10.1171 7.31818 12 7.31818C13.8828 7.31818 15.4091 8.84449 15.4091 10.7273ZM12 15.0661C15.4502 15.0661 18.3018 17.6288 18.7553 20.9545H5.24465C5.69811 17.6288 8.54976 15.0661 12 15.0661Z" fill="#999999"/>
</svg>
