<svg width="36" height="36" viewBox="0 0 36 36" fill="none" xmlns="http://www.w3.org/2000/svg">
<rect width="36" height="36" rx="9.70748" fill="#113A5D"/>
<path fill-rule="evenodd" clip-rule="evenodd" d="M22.459 16.8745L23.8333 15.5002C24.0679 15.2657 24.1851 15.1484 24.2696 15.0362C24.8056 14.324 24.8056 13.343 24.2696 12.6308C24.1851 12.5186 24.0679 12.4014 23.8333 12.1669C23.5988 11.9324 23.4816 11.8151 23.3694 11.7306C22.6572 11.1946 21.6762 11.1946 20.964 11.7306C20.8518 11.8151 20.7345 11.9323 20.5 12.1668L20.5 12.1669L19.1064 13.5605C19.9033 14.9407 21.06 16.0885 22.459 16.8745ZM17.6518 15.0151L12.1897 20.4771C11.7647 20.9022 11.5521 21.1147 11.4124 21.3758C11.2727 21.6369 11.2137 21.9317 11.0958 22.5211L10.6471 24.7647C10.5806 25.0974 10.5473 25.2637 10.6419 25.3583C10.7365 25.4529 10.9028 25.4196 11.2355 25.3531L13.4791 24.9044C14.0686 24.7865 14.3633 24.7275 14.6244 24.5878C14.8855 24.4481 15.098 24.2355 15.5231 23.8105L21.0006 18.3329C19.6528 17.4822 18.5106 16.3477 17.6518 15.0151Z" fill="white"/>
</svg>
