<svg width="45" height="23" viewBox="0 0 45 23" fill="none" xmlns="http://www.w3.org/2000/svg">
<path d="M1.36559 22H7.24559V12.76H12.6156V22H18.4956V0.549999H12.6156V9.07H7.24559V0.549999H0.285587C1.27559 1.99 1.36559 3.43 1.36559 5.02V22ZM20.2855 3.07C20.2855 4.09 22.5955 5.92 23.5555 5.92C24.4855 5.92 26.7655 4.09 26.7655 3.07C26.7655 2.02 24.4855 0.249999 23.5555 0.249999C22.5955 0.249999 20.2855 2.02 20.2855 3.07ZM26.5855 22V6.49L20.0755 8.41C20.9455 9.16 21.2155 10 21.2155 10.93V22H26.5855ZM37.625 3.82C37.625 5.98 39.335 14.74 41.015 14.74C42.665 14.74 44.405 5.98 44.405 3.82C44.405 1.66 42.665 0.429999 41.015 0.429999C39.335 0.429999 37.625 1.66 37.625 3.82ZM37.625 19.15C37.625 20.38 39.785 22.15 41.015 22.15C42.215 22.15 44.405 20.38 44.405 19.15C44.405 17.92 42.215 16.15 41.015 16.15C39.785 16.15 37.625 17.92 37.625 19.15Z" fill="#113A5D"/>
</svg>
