<svg width="270" height="200" viewBox="0 0 270 200" fill="none" xmlns="http://www.w3.org/2000/svg">
<g clip-path="url(#clip0_98_2363)">
<path d="M0.811035 175.893H269.189V175.759H0.811035V175.893Z" fill="#E9E9E8"/>
<path d="M67.8126 184.013H50.0341V183.879H67.8126V184.013Z" fill="#E9E9E8"/>
<path d="M44.4079 184.013H34.1057V183.879H44.4079V184.013Z" fill="#E9E9E8"/>
<path d="M113.828 185.989H103.526V185.854H113.828V185.989Z" fill="#E9E9E8"/>
<path d="M167.537 188.985H144.352V188.851H167.537V188.985Z" fill="#E9E9E8"/>
<path d="M139.574 188.985H136.174V188.851H139.574V188.985Z" fill="#E9E9E8"/>
<path d="M244.146 185.989H193.864V185.854H244.146V185.989Z" fill="#E9E9E8"/>
<path d="M24.3828 0.134201C22.7671 0.134201 21.453 1.44818 21.453 3.06329V148.756C21.453 150.371 22.7671 151.686 24.3828 151.686H128.03C129.644 151.686 130.959 150.371 130.959 148.756V3.06329C130.959 1.44818 129.644 0.134201 128.03 0.134201H24.3828ZM128.03 151.82H24.3828C22.6933 151.82 21.3188 150.446 21.3188 148.756V3.06329C21.3188 1.37465 22.6933 0 24.3828 0H128.03C129.718 0 131.093 1.37465 131.093 3.06329V148.756C131.093 150.446 129.718 151.82 128.03 151.82Z" fill="#E9E9E8"/>
<path d="M140.481 0.134201C138.866 0.134201 137.552 1.44818 137.552 3.06329V148.756C137.552 150.371 138.866 151.686 140.481 151.686H244.128C245.743 151.686 247.058 150.371 247.058 148.756V3.06329C247.058 1.44818 245.743 0.134201 244.128 0.134201H140.481ZM244.128 151.82H140.481C138.792 151.82 137.418 150.446 137.418 148.756V3.06329C137.418 1.37465 138.792 0 140.481 0H244.128C245.817 0 247.192 1.37465 247.192 3.06329V148.756C247.192 150.446 245.817 151.82 244.128 151.82Z" fill="#E9E9E8"/>
<path d="M132.536 176.732H144.339V129.908H132.536V176.732Z" fill="#E3E3E2"/>
<path d="M142.097 176.732H144.339V170.355H139.747L142.097 176.732Z" fill="#FCFDFD"/>
<path d="M80.8171 176.732H92.6199V129.908H80.8171V176.732Z" fill="#E3E3E2"/>
<path d="M90.6633 172.819H144.339V129.909H90.6633V172.819Z" fill="#FCFDFD"/>
<path d="M142.6 131.81H92.4025V143.578H142.6V131.81ZM142.393 132.018V143.37H92.6097V132.018H142.393Z" fill="#E3E3E2"/>
<path d="M92.9048 176.732H90.6633V170.355H95.2553L92.9048 176.732Z" fill="#FCFDFD"/>
<path d="M116.314 137.694C116.314 138.349 116.846 138.881 117.501 138.881C118.157 138.881 118.689 138.349 118.689 137.694C118.689 137.038 118.157 136.507 117.501 136.507C116.846 136.507 116.314 137.038 116.314 137.694Z" fill="#E9E9E8"/>
<path d="M142.6 145.48H92.4025V157.247H142.6V145.48ZM142.393 145.687V157.04H92.6097V145.687H142.393Z" fill="#E3E3E2"/>
<path d="M116.314 151.364C116.314 152.019 116.846 152.551 117.501 152.551C118.157 152.551 118.688 152.019 118.688 151.364C118.688 150.708 118.157 150.177 117.501 150.177C116.846 150.177 116.314 150.708 116.314 151.364Z" fill="#E9E9E8"/>
<path d="M142.6 159.15H92.4025V170.917H142.6V159.15ZM142.393 159.356V170.71H92.6097V159.356H142.393Z" fill="#E3E3E2"/>
<path d="M116.314 165.033C116.314 165.689 116.846 166.22 117.501 166.22C118.157 166.22 118.688 165.689 118.688 165.033C118.688 164.378 118.157 163.846 117.501 163.846C116.846 163.846 116.314 164.378 116.314 165.033Z" fill="#E9E9E8"/>
<path d="M73.6063 176.732H85.4091V102.715H73.6063V176.732Z" fill="#E3E3E2"/>
<path d="M83.1676 176.732H85.4091V170.355H80.8171L83.1676 176.732Z" fill="#FCFDFD"/>
<path d="M41.2972 176.732H29.4945V102.715H41.2972V176.732Z" fill="#E3E3E2"/>
<path d="M39.3408 172.819H85.4091V102.715H39.3408V172.819Z" fill="#FCFDFD"/>
<path d="M83.6701 104.456H41.08V120.817H83.6701V104.456ZM83.4258 104.701V120.572H41.3246V104.701H83.4258Z" fill="#E3E3E2"/>
<path d="M83.67 122.257H63.1273V164.847H83.67V122.257ZM83.4258 122.502V164.603H63.3721V122.502H83.4258Z" fill="#E3E3E2"/>
<path d="M61.6228 122.257H41.08V164.847H61.6228V122.257ZM61.3781 122.502V164.603H41.3246V122.502H61.3781Z" fill="#E3E3E2"/>
<path d="M41.5824 176.732H39.3408V170.355H43.933L41.5824 176.732Z" fill="#FCFDFD"/>
<path d="M61.188 112.636C61.188 113.292 61.7194 113.823 62.3748 113.823C63.0307 113.823 63.5621 113.292 63.5621 112.636C63.5621 111.981 63.0307 111.449 62.3748 111.449C61.7194 111.449 61.188 111.981 61.188 112.636Z" fill="#E9E9E8"/>
<path d="M65.438 142.548C65.438 143.203 65.9699 143.735 66.6253 143.735C67.2807 143.735 67.8126 143.203 67.8126 142.548C67.8126 141.892 67.2807 141.361 66.6253 141.361C65.9699 141.361 65.438 141.892 65.438 142.548Z" fill="#E9E9E8"/>
<path d="M56.9375 142.548C56.9375 143.203 57.4694 143.735 58.1248 143.735C58.7807 143.735 59.3121 143.203 59.3121 142.548C59.3121 141.892 58.7807 141.361 58.1248 141.361C57.4694 141.361 56.9375 141.892 56.9375 142.548Z" fill="#E9E9E8"/>
<path d="M55.6004 82.0787H50.6211C50.6211 82.0787 51.4854 86.6814 51.4854 89.3898C51.4854 92.0983 47.6983 102.715 53.1105 102.715C58.523 102.715 54.7357 92.0983 54.7357 89.3898C54.7357 86.6814 55.6004 82.0787 55.6004 82.0787Z" fill="#C4FFDD"/>
<path d="M36.668 92.9641V96.1991C36.668 99.783 39.6006 102.715 43.1846 102.715H46.4195C50.0036 102.715 52.9361 99.783 52.9361 96.1991V92.9641H36.668Z" fill="#F8F8F9"/>
<path d="M105.836 123.085C105.836 126.838 110.039 129.908 115.177 129.908H119.814C124.952 129.908 129.155 126.838 129.155 123.085H105.836Z" fill="#E3E3E2"/>
<path d="M228.721 117.591C225.908 119.887 222.027 124.09 218.469 130.005C216.1 133.943 214.673 138.07 214.045 143.523C214.059 137.351 214.078 130.719 214.099 124.46C214.814 122.85 216.446 119.138 217.616 116.205C221.522 106.419 222.977 104.013 226.49 95.5726C231.175 84.3152 235.977 70.9564 234.602 72.024C231.801 74.199 221.065 94.3015 219.905 97.1791C215.913 107.077 214.802 114.291 214.111 121.254C214.133 115.376 214.156 109.977 214.178 105.813C214.249 92.2286 214.481 87.8444 214.593 86.4923C215.028 85.8052 215.541 85.0044 215.839 84.5729C218.361 80.9267 219.334 77.8205 221.71 72.382C225.077 64.6758 227.977 50.994 227.129 51.6842C223.599 54.5575 220.815 60.7345 217.157 68.606C213.498 76.4775 214.544 81.0045 213.819 87.7268C213.666 89.0467 213.55 94.0246 213.466 100.925C212.517 93.5737 210.737 88.7295 207.489 84.3276C203.494 78.9133 199.631 75.2559 196.795 73.3455C193.96 71.4358 201.691 84.7355 205.388 90.5405C208.681 95.71 211.714 100.272 213.423 104.765C213.334 114.116 213.291 125.958 213.291 136.981C212.442 131.964 211.058 126.563 209.21 122.38C206.99 117.354 203.575 109.646 200.856 107.031C200.203 106.403 203.699 121.395 205.942 125.381C208.186 129.368 209.833 133.125 211.245 135.384C211.574 135.912 212.667 137.945 213.291 139.114C213.298 152.571 213.366 164.444 213.483 168.486H214.065C214.025 167.444 214.018 160.598 214.03 151.539C215.431 146.619 218.632 141.006 221.274 135.884C224.158 130.295 231.534 115.295 228.721 117.591Z" fill="#C4FFDD"/>
<path d="M222.191 176.732H205.367L204.097 160.241H223.461L222.191 176.732Z" fill="#F4F4F4"/>
<path d="M224.714 162.163H202.844L202.217 156.599H225.341L224.714 162.163Z" fill="#F8F8F9"/>
<path d="M67.5078 44.0647H37.4218V11.0279H67.5078V44.0647Z" fill="#E3E3E2"/>
<path d="M70.7669 44.0647H39.6899V11.0279H70.7669V44.0647Z" fill="#F8F8F9"/>
<path d="M42.2932 41.4613V13.6311H68.1631V41.4613H42.2932Z" fill="white"/>
<path d="M48.5636 34.7153V20.377H61.8927V34.7153H48.5636Z" fill="#C4FFDD"/>
<path d="M220.908 45.5685H192.959V14.8789H220.908V45.5685Z" fill="#E3E3E2"/>
<path d="M223.935 45.5685H195.066V14.8789H223.935V45.5685Z" fill="#F8F8F9"/>
<path d="M197.485 43.1505V17.2971H221.517V43.1505H197.485Z" fill="white"/>
<path d="M216.999 30.2237C216.999 34.3642 213.642 37.7211 209.501 37.7211C205.36 37.7211 202.003 34.3642 202.003 30.2237C202.003 26.0831 205.36 22.7263 209.501 22.7263C213.642 22.7263 216.999 26.0831 216.999 30.2237Z" fill="#C4FFDD"/>
<path d="M98.7635 55.2334H76.4447V30.7262H98.7635V55.2334Z" fill="#E3E3E2"/>
<path d="M101.181 55.2334H78.1274V30.7262H101.181V55.2334Z" fill="#F8F8F9"/>
<path d="M80.0587 53.3027V32.6575H99.2499V53.3027H80.0587Z" fill="white"/>
<path d="M89.6544 37.7609L84.406 46.8519H94.9028L89.6544 37.7609Z" fill="#C4FFDD"/>
<path d="M239.071 193.922C239.071 197.279 192.477 200 135 200C77.5231 200 30.9291 197.279 30.9291 193.922C30.9291 190.566 77.5231 187.844 135 187.844C192.477 187.844 239.071 190.566 239.071 193.922Z" fill="#F8F8F9"/>
<path d="M188.27 58.2269L182.947 56.068C182.947 56.068 175.921 68.882 173.908 69.5288C171.17 70.4086 165.506 72.8562 162.141 73.3145C161.687 73.8449 160.939 75.5174 161.011 76.1271C165.526 77.6327 175.445 75.6333 177.568 74.0563C182.408 70.4612 188.27 58.2269 188.27 58.2269Z" fill="#D5D5D5"/>
<path d="M189.91 55.3197C190.9 58.9901 185.523 66.364 185.523 66.364L178.458 62.4011C178.458 62.4011 179.775 59.3701 181.388 56.2832C183.991 51.2978 188.779 51.1298 189.91 55.3197Z" fill="#113A5D"/>
<path d="M182.488 64.662L178.458 62.4012C178.458 62.4012 179.775 59.3701 181.388 56.2832C182.451 54.2468 183.879 53.0144 185.274 52.5538C185.267 52.5678 184.43 54.4379 183.602 58.0631C182.481 59.7206 181.678 62.4017 181.275 63.9787L182.488 64.6593C182.488 64.6604 182.488 64.6615 182.488 64.662ZM185.275 52.5533C185.473 52.4884 185.67 52.4384 185.866 52.4046C185.505 52.4916 185.292 52.549 185.275 52.5533Z" fill="#113A5D"/>
<path d="M182.488 64.6594L181.275 63.9788C181.678 62.4018 182.481 59.7207 183.602 58.0632C183.195 59.8431 182.791 62.0449 182.488 64.6594Z" fill="#113A5D"/>
<path d="M185.273 52.5538C185.273 52.5538 179.788 64.7575 182.986 87.4843C189.499 87.4843 201.433 87.4843 204.602 87.4843C204.945 84.166 203.809 67.9796 207.926 52.3455C207.926 52.3455 204.264 51.6021 200.743 51.432C197.989 51.2989 193.996 51.2108 191.555 51.4325C188.337 51.7245 185.273 52.5538 185.273 52.5538Z" fill="#113A5D"/>
<path d="M204.602 87.4843C201.433 87.4843 189.499 87.4843 182.986 87.4843C182.835 86.4064 182.702 85.3512 182.588 84.3206L198.661 79.1033C201.17 78.353 203.355 76.7754 204.844 74.6188C204.885 73.6424 204.937 72.6328 205.004 71.592C204.508 79.4361 204.799 85.5798 204.602 87.4843ZM182.301 81.3363C182.08 78.6154 181.985 76.0787 181.985 73.7294C181.984 59.8725 185.274 52.5538 185.274 52.5538C185.274 52.5538 188.337 51.7245 191.555 51.4325C192.631 51.3348 194.009 51.2973 195.449 51.2973C197.275 51.2973 199.203 51.3579 200.743 51.432C203.883 51.5839 207.135 52.1915 207.802 52.3214C207.588 52.2827 207.372 52.2634 207.153 52.2634C205.446 52.2634 203.651 53.4513 202.474 56.0025C200.338 60.6347 199.214 64.0924 199.214 64.0924L200.641 64.6748C199.25 67.5491 197.818 70.1299 197.008 70.4986C194.376 71.6961 187.713 75.8383 184.881 77.835C184.794 78.2048 184.793 78.916 184.87 79.559L182.3 81.3368" fill="#113A5D"/>
<path d="M198.565 195.45C188.422 195.45 180.227 194.984 180.261 194.407C180.295 193.831 188.545 193.364 198.688 193.364C208.831 193.364 217.026 193.831 216.992 194.407C216.958 194.984 208.708 195.45 198.565 195.45Z" fill="#113A5D"/>
<path d="M198.509 188.479L194.663 189.962L191.358 181.403L195.205 179.921L198.509 188.479Z" fill="white"/>
<path d="M211.784 190.28H207.742L206.26 180.922H210.301L211.784 190.28Z" fill="white"/>
<path d="M207.482 189.812H212.023C212.188 189.812 212.324 189.927 212.35 190.089L212.938 193.681C212.999 194.054 212.686 194.406 212.304 194.4C210.721 194.373 209.956 194.28 207.96 194.28C206.731 194.28 204.193 194.407 202.497 194.407C200.838 194.407 200.677 192.73 201.381 192.578C204.535 191.897 205.763 190.957 206.812 190.061C207.001 189.9 207.241 189.812 207.482 189.812Z" fill="#062743"/>
<path d="M194.029 188.398L198.334 187.146C198.495 187.1 198.661 187.169 198.732 187.313L200.327 190.532C200.493 190.865 200.297 191.284 199.924 191.386C198.364 191.811 197.316 192.078 195.364 192.645C194.015 193.037 192.643 193.677 191.31 194.101C190.387 194.395 188.22 194.407 187.099 194.407C185.439 194.407 185.07 192.658 185.78 192.578C187.58 192.376 187.822 192.47 188.815 191.971C190.457 191.147 191.728 190.465 193.15 188.976C193.398 188.716 193.688 188.496 194.029 188.398Z" fill="#062743"/>
<path d="M162.822 73.2764L158.375 71.4053L156.544 76.3316C156.544 76.3316 159.11 76.797 162.041 76.3316L162.822 73.2764Z" fill="white"/>
<path d="M155.07 71.2844L154.952 74.5619L156.544 76.3315L158.375 71.4052L155.07 71.2844Z" fill="white"/>
<path d="M191.36 181.405L193.063 185.817L196.911 184.334L195.208 179.922L191.36 181.405Z" fill="#062743"/>
<path d="M210.302 180.925H206.26L207.026 185.749H211.069L210.302 180.925Z" fill="#062743"/>
<path d="M182.587 84.3212C182.472 83.3008 182.378 82.3078 182.301 81.3368C182.38 82.3078 182.476 83.3024 182.588 84.3206L182.587 84.3212ZM205.004 71.592C205.062 70.6693 205.131 69.723 205.213 68.7574C205.214 68.7563 205.214 68.7558 205.215 68.7547C205.176 69.2104 205.141 69.6613 205.108 70.1068C205.07 70.6087 205.035 71.1036 205.004 71.592Z" fill="#D5D5D5"/>
<path d="M182.588 84.3206C182.475 83.3023 182.38 82.3077 182.301 81.3362L184.87 79.559C184.932 80.077 185.045 80.5509 185.204 80.7672C190.019 79.8918 199.283 76.3304 201.215 74.5205C202.595 73.2274 203.972 71.0874 205.213 68.7573C205.131 69.7229 205.062 70.6692 205.004 71.5919C204.937 72.6327 204.885 73.6423 204.844 74.6187C203.355 76.7754 201.17 78.3529 198.661 79.1033L182.588 84.3206Z" fill="#113A5D"/>
<path d="M187.548 63.7318L187.001 63.6669C187.32 60.9885 189.319 58.8715 191.432 58.9214L191.415 59.4732C189.592 59.4211 187.835 61.3298 187.548 63.7318Z" fill="white"/>
<path d="M190.408 68.6882L190.318 68.6872L190.334 68.1354C192.179 68.203 193.914 66.2793 194.201 63.8773L194.748 63.9422C194.434 66.5825 192.497 68.6882 190.408 68.6882Z" fill="white"/>
<path d="M200.44 41.0861C199.687 44.0425 198.791 49.4595 200.743 51.4321C200.743 51.4321 199.379 54.4309 193.886 54.4309C188.866 54.4309 191.555 51.4326 191.555 51.4326C194.899 50.6452 194.957 48.1992 194.517 45.9019L200.44 41.0861Z" fill="#D5D5D5"/>
<path d="M198.025 43.0507L194.52 45.8998C194.626 46.443 194.701 46.9942 194.707 47.5304C195.732 48.5508 197.789 45.9658 198 44.647C198.105 43.9895 198.114 43.3572 198.025 43.0507Z" fill="#062743"/>
<path d="M188.495 41.0495C189.009 41.9695 189.915 42.5417 190.772 42.7328C192.061 43.0194 192.709 41.8337 192.353 40.6411C192.033 39.567 190.978 38.1237 189.682 38.3711C188.407 38.6148 187.907 39.997 188.495 41.0495Z" fill="#062743"/>
<path d="M190.622 31.5871C188.614 32.5066 187.907 40.4817 190.431 41.6604C192.954 42.8396 194.425 29.8448 190.622 31.5871Z" fill="#062743"/>
<path d="M201.053 36.637C200.572 40.6401 200.494 42.9959 198.351 45.0501C195.128 48.1407 190.295 46.3077 189.574 42.3121C188.925 38.7148 189.82 32.7729 193.832 31.1792C197.784 29.6098 201.533 32.6333 201.053 36.637Z" fill="#D5D5D5"/>
<path d="M194.458 33.6616C197.428 32.9016 199.613 32.3847 198.833 34.8629C197.794 38.165 196.548 41.3641 198.22 41.5133C199.236 41.6035 203.746 39.6905 203.173 37.7555C202.674 36.0706 204.77 35.6159 205.157 34.7561C206.549 31.6611 202.572 32.0637 203.28 30.1904C203.969 28.3671 200.076 25.2856 197.919 26.7912C194.427 29.2286 188.426 29.1937 191.581 25.1959C193.84 22.3323 189.809 22.9206 189.809 22.9206C189.809 22.9206 192.244 24.3645 188.146 26.5974C183.801 28.965 187.778 35.3701 194.458 33.6616Z" fill="#062743"/>
<path d="M202.602 41.0495C201.98 41.9695 201.007 42.5417 200.127 42.7328C198.805 43.0194 198.296 41.8337 198.792 40.6411C199.237 39.567 200.463 38.1237 201.728 38.3711C202.976 38.6148 203.313 39.997 202.602 41.0495Z" fill="#D5D5D5"/>
<path d="M182.986 87.4844C182.986 87.4844 179.358 119.956 179.075 132.28C178.78 145.099 191.371 185.094 191.371 185.094L197.818 182.387C197.818 182.387 190.311 145.848 191.354 133.259C192.491 119.535 197.195 87.4844 197.195 87.4844H182.986Z" fill="#113A5D"/>
<path d="M192.626 121.299C191.142 114.638 189.317 103.643 191.584 97.4003C192.082 102.548 192.728 109.015 193.397 115.09C193.128 117.193 192.868 119.281 192.626 121.299Z" fill="#113A5D"/>
<path d="M197.527 180.282L198.291 182.337L190.86 185.457L189.689 183.28L197.527 180.282Z" fill="#113A5D"/>
<path d="M190.654 87.4843C190.654 87.4843 193.429 118.368 195.269 129.939C197.283 142.609 205.196 184.815 205.196 184.815H212.598C212.598 184.815 208.163 143.632 207.326 131.087C206.416 117.472 204.602 87.4843 204.602 87.4843H190.654Z" fill="#113A5D"/>
<path d="M212.711 182.886L212.959 184.954H204.823L204.243 182.579L212.711 182.886Z" fill="#113A5D"/>
<path d="M209.876 180.441L209.808 180.38C209.767 180.005 205.768 142.824 205.015 131.554C204.198 119.323 202.557 92.203 202.54 91.9309L202.604 91.8573H202.609L202.678 91.9223C202.694 92.1949 204.336 119.315 205.153 131.545C205.905 142.813 209.904 179.991 209.944 180.365L209.884 180.44L209.876 180.441Z" fill="#113A5D"/>
<path d="M194.915 37.7555C194.896 38.0819 194.707 38.3459 194.494 38.3459C194.281 38.3459 194.124 38.0819 194.143 37.7555C194.162 37.4297 194.351 37.1656 194.564 37.1656C194.777 37.1656 194.934 37.4297 194.915 37.7555Z" fill="#062743"/>
<path d="M191.231 37.7555C191.212 38.0819 191.023 38.3459 190.81 38.3459C190.597 38.3459 190.44 38.0819 190.459 37.7555C190.478 37.4297 190.666 37.1656 190.879 37.1656C191.093 37.1656 191.25 37.4297 191.231 37.7555Z" fill="#062743"/>
<path d="M192.393 37.918C192.393 37.918 191.541 39.7983 190.672 40.7054C191.217 41.2438 192.212 40.9979 192.212 40.9979L192.393 37.918Z" fill="#062743"/>
<path d="M192.486 42.3652C192.433 42.3652 192.393 42.3223 192.396 42.2697C192.399 42.2166 192.444 42.1736 192.497 42.1736C193.928 42.1736 194.654 41.1742 194.661 41.1645L194.796 41.1366L194.815 41.2692C194.784 41.3137 194.019 42.3652 192.486 42.3652Z" fill="#062743"/>
<path d="M195.57 36.7641C195.515 36.7856 195.452 36.7823 195.401 36.7496C194.697 36.3068 194.041 36.6036 194.034 36.6073C193.943 36.6535 193.824 36.6127 193.784 36.5177C193.743 36.4222 193.79 36.3078 193.889 36.2617C193.923 36.245 194.746 35.872 195.619 36.4227C195.707 36.4774 195.728 36.5955 195.667 36.6852L195.57 36.7641Z" fill="#062743"/>
<path d="M189.806 35.6933L189.733 35.6525C189.658 35.5822 189.658 35.4614 189.733 35.382C190.482 34.5908 191.351 34.711 191.387 34.7164C191.489 34.7282 191.557 34.8291 191.535 34.9343C191.514 35.039 191.413 35.1104 191.309 35.0953C191.281 35.0916 190.602 35.0046 190.004 35.6369C189.951 35.6933 189.872 35.7126 189.806 35.6933Z" fill="#062743"/>
<path d="M210 57.6283L204.417 56.1421C204.417 56.1421 198.942 69.6189 197.008 70.4987C194.376 71.6962 187.713 75.8383 184.881 77.835C184.725 78.5022 184.847 80.2826 185.204 80.7673C190.019 79.8919 199.283 76.3305 201.215 74.5206C205.619 70.3935 210 57.6283 210 57.6283Z" fill="#D5D5D5"/>
<path d="M205.553 189.682C205.503 189.682 205.46 189.69 205.428 189.706C205.401 189.72 205.37 189.744 205.361 189.818C205.342 189.971 205.378 190.085 205.47 190.166C205.68 190.353 206.206 190.377 206.901 190.239C206.46 189.975 205.863 189.682 205.553 189.682ZM206.104 190.518C205.797 190.518 205.512 190.466 205.339 190.313C205.201 190.191 205.144 190.02 205.17 189.807C205.19 189.647 205.279 189.572 205.35 189.536C205.806 189.307 207.067 190.107 207.209 190.199L207.247 190.297L207.17 190.373C206.886 190.441 206.478 190.518 206.104 190.518Z" fill="#113A5D"/>
<path d="M206.428 188.738L206.385 188.741C206.26 188.756 206.245 188.814 206.24 188.837C206.173 189.103 206.649 189.773 207.046 190.088C207.019 189.748 206.93 189.068 206.643 188.822C206.578 188.766 206.508 188.738 206.428 188.738ZM207.148 190.376L207.103 190.365C206.698 190.138 205.941 189.252 206.053 188.802C206.073 188.72 206.142 188.579 206.373 188.551C206.524 188.533 206.657 188.574 206.773 188.674C207.22 189.057 207.249 190.224 207.249 190.273L207.201 190.361L207.148 190.376Z" fill="#113A5D"/>
<path d="M190.979 189.213C190.906 189.23 190.848 189.256 190.81 189.29C190.776 189.32 190.764 189.354 190.768 189.403C190.783 189.531 190.838 189.62 190.939 189.675C191.224 189.83 191.885 189.707 192.737 189.351C192.138 189.226 191.356 189.121 190.979 189.213ZM191.852 189.851C191.457 189.946 191.08 189.974 190.839 189.844C190.686 189.761 190.598 189.623 190.578 189.434C190.565 189.322 190.604 189.224 190.687 189.15C191.12 188.765 192.87 189.179 193.069 189.227L193.137 189.311L193.076 189.408C192.752 189.555 192.29 189.744 191.852 189.851Z" fill="#113A5D"/>
<path d="M191.79 188.058L191.733 188.074C191.567 188.133 191.569 188.2 191.569 188.223C191.575 188.501 192.347 189.01 192.891 189.182C192.783 188.886 192.522 188.288 192.14 188.1C192.024 188.043 191.909 188.028 191.79 188.058ZM193.059 189.413L193.018 189.415C192.498 189.319 191.388 188.701 191.377 188.239C191.374 188.131 191.425 187.983 191.68 187.895C191.864 187.825 192.054 187.839 192.233 187.927C192.816 188.215 193.12 189.245 193.134 189.289L193.11 189.383L193.059 189.413Z" fill="#113A5D"/>
<path d="M185.336 77.5184L179.739 80.0949L179.09 81.6745L181.158 83.0658C181.158 83.0658 185.019 82.6461 186.118 80.1652L185.336 77.5184Z" fill="#D5D5D5"/>
<path d="M185.574 80.8585C185.224 78.7797 184.54 77.8307 184.534 77.821L185.416 77.1597C185.451 77.2048 186.262 78.3003 186.662 80.6755L185.574 80.8585Z" fill="#062743"/>
<path d="M186.527 78.2796C186.709 78.7288 186.417 79.2699 185.876 79.4889C185.334 79.7079 184.749 79.5211 184.567 79.0718C184.386 78.6231 184.677 78.0815 185.219 77.8631C185.76 77.6441 186.346 77.8303 186.527 78.2796Z" fill="#062743"/>
<path d="M175.957 82.1752L176.7 82.9282L181.722 80.7801L179.739 80.0947L175.957 82.1752Z" fill="#D5D5D5"/>
<path d="M190.86 185.457L189.689 183.28L197.527 180.282L198.291 182.337L196.44 183.114L192.636 184.711H192.636L190.86 185.457Z" fill="#113A5D"/>
<path d="M212.959 184.954H204.823L204.243 182.579L212.711 182.886L212.959 184.954Z" fill="#113A5D"/>
<path d="M211.456 56.0841C212.933 60.8435 207.183 67.3452 207.183 67.3452L199.214 64.0925C199.214 64.0925 200.338 60.6347 202.474 56.0025C204.903 50.7369 209.965 51.2806 211.456 56.0841Z" fill="#113A5D"/>
<path d="M207.183 67.3452L206.147 66.9222L200.641 64.6749L199.214 64.0925C199.214 64.0925 200.338 60.6347 202.474 56.0025C203.651 53.4513 205.446 52.2635 207.153 52.2635C208.97 52.2635 210.688 53.6075 211.456 56.0841C211.625 56.6278 211.7 57.1941 211.699 57.7711C211.694 62.2444 207.183 67.3452 207.183 67.3452Z" fill="#113A5D"/>
<path d="M132.249 8.93445H128.82V8.38266H132.249V8.93445Z" fill="#113A5D"/>
<path d="M176.79 39.4984L176.239 39.4737L176.651 30.263L177.201 30.2882L176.79 39.4984Z" fill="#113A5D"/>
<path d="M175.585 10.8647H112.249L106.353 142.756H169.689L175.585 10.8647Z" fill="#113A5D"/>
<path d="M167.798 144.566H165.989L166.07 142.756H167.88L167.798 144.566ZM112.087 14.4845H110.278L110.358 12.6746H112.168L112.087 14.4845Z" fill="#FEFFFF"/>
<path d="M167.879 142.756H166.07L171.804 14.4845H112.087L112.168 12.6746H173.695L167.879 142.756Z" fill="#113A5D"/>
<path d="M165.908 146.375H144.339V144.566H165.989L165.908 146.375Z" fill="#F5F8FD"/>
<path d="M144.339 146.375H142.6V145.48H103.487C103.755 144.837 104 144.201 104.215 143.578H104.506L104.462 144.566H144.339V146.375ZM142.393 146.375H103.099C103.203 146.145 103.302 145.916 103.4 145.687H142.393V146.375ZM104.515 143.37H104.286C104.381 143.087 104.47 142.806 104.554 142.528L104.515 143.37Z" fill="#F0F5FC"/>
<path d="M104.506 143.578H104.215C104.239 143.508 104.262 143.44 104.286 143.37H104.515L104.506 143.578Z" fill="#D7DCE6"/>
<path d="M142.6 146.375H142.393V145.687H103.4C103.429 145.617 103.458 145.549 103.487 145.48H142.6V146.375Z" fill="#D7DCE6"/>
<path d="M105.118 129.908H103.551C103.481 129.708 103.409 129.507 103.335 129.306L108.468 14.4845H110.278L105.118 129.908Z" fill="#F5F8FD"/>
<path d="M104.901 134.757C104.729 133.866 104.503 132.951 104.23 132.018H105.023L104.901 134.757ZM105.032 131.81H104.17C103.983 131.183 103.776 130.548 103.551 129.908H105.118L105.032 131.81Z" fill="#F0F5FC"/>
<path d="M105.023 132.018H104.23C104.211 131.949 104.19 131.879 104.17 131.81H105.032L105.023 132.018Z" fill="#D7DCE6"/>
<path d="M165.989 144.566H144.339V142.756H166.07L165.989 144.566ZM106.927 129.908H105.118L110.278 14.4845H112.087L107.232 123.085H105.836C105.836 124.317 106.29 125.476 107.081 126.477L106.927 129.908Z" fill="#F2F6FC"/>
<path d="M144.339 144.566H104.462L104.506 143.578H142.6V142.756H144.339V144.566ZM142.393 143.37H104.515L104.554 142.528C105.016 140.976 105.279 139.512 105.278 138.19C105.278 138.077 105.276 137.966 105.272 137.856C105.237 136.869 105.108 135.831 104.901 134.757L105.023 132.018H106.833L106.353 142.756H142.393V143.37ZM106.842 131.81H105.032L105.118 129.908H106.927L106.842 131.81Z" fill="#F0F5FC"/>
<path d="M142.6 143.578H104.506L104.515 143.37H142.393V142.756H142.6V143.578ZM106.833 132.018H105.023L105.032 131.81H106.842L106.833 132.018Z" fill="#E5EAF4"/>
<path d="M107.081 126.477C106.29 125.476 105.836 124.317 105.836 123.085H107.233L107.081 126.477Z" fill="#E5EAF4"/>
<path d="M166.07 142.756H106.353L106.833 132.018L106.842 131.81L106.927 129.908L107.081 126.478L107.233 123.085L112.087 14.4845H171.804L166.07 142.756ZM117.109 122.962L116.569 135.06H152.923L153.463 122.962H117.109ZM127.538 47.4923C129.883 50.9292 133.831 53.1632 138.404 53.1632C142.976 53.1632 147.131 50.9292 149.783 47.4923C151.538 45.2256 152.635 42.4345 152.769 39.412C153.109 31.8169 147.228 25.6614 139.633 25.6614C132.044 25.6614 125.613 31.8169 125.273 39.412C125.138 42.4345 125.985 45.2256 127.538 47.4923Z" fill="#EAEAEA"/>
<path d="M164.594 72.0074H110.534L110.083 82.1022H164.144L164.594 72.0074Z" fill="white"/>
<path d="M140.268 64.6459H110.863L110.661 69.1621H140.066L140.268 64.6459Z" fill="#113A5D"/>
<path d="M163.377 99.2446H109.316L108.865 109.339H162.926L163.377 99.2446Z" fill="white"/>
<path d="M152.923 135.06H116.569L117.109 122.962H153.463L152.923 135.06Z" fill="#113A5D"/>
<path d="M114.745 136.806H150.971L151.506 124.836H115.28L114.745 136.806ZM151.032 136.934H114.678L114.632 136.914L114.615 136.867L115.156 124.769L115.219 124.707H151.572L151.619 124.728L151.636 124.774L151.095 136.873L151.032 136.934Z" fill="white"/>
<path d="M133.915 91.8825H109.645L109.443 96.3988H133.713L133.915 91.8825Z" fill="#113A5D"/>
<path d="M152.769 39.4119C152.634 42.4344 151.538 45.2255 149.783 47.4923C147.131 50.9291 142.976 53.1631 138.404 53.1631C133.831 53.1631 129.882 50.9291 127.538 47.4923C125.985 45.2255 125.138 42.4344 125.273 39.4119C125.613 31.8168 132.043 25.6613 139.633 25.6613C147.228 25.6613 153.109 31.8168 152.769 39.4119Z" fill="white"/>
<path d="M154.063 28.5394C154.027 29.3424 153.736 30.0842 153.269 30.6864C152.565 31.5994 151.461 32.1936 150.245 32.1936C149.031 32.1936 147.982 31.5994 147.358 30.6864C146.946 30.0842 146.721 29.3424 146.757 28.5394C146.847 26.5212 148.556 24.8857 150.573 24.8857C152.591 24.8857 154.154 26.5212 154.063 28.5394Z" fill="#113A5D"/>
<path d="M116.356 77.0547C116.316 77.9484 115.559 78.6725 114.666 78.6725C113.773 78.6725 113.081 77.9484 113.121 77.0547C113.161 76.1615 113.917 75.4375 114.811 75.4375C115.704 75.4375 116.396 76.1615 116.356 77.0547Z" fill="#062743"/>
<path d="M123.595 77.0547C123.555 77.9484 122.799 78.6725 121.905 78.6725C121.012 78.6725 120.32 77.9484 120.36 77.0547C120.4 76.1615 121.156 75.4375 122.05 75.4375C122.943 75.4375 123.635 76.1615 123.595 77.0547Z" fill="#062743"/>
<path d="M130.835 77.0547C130.795 77.9484 130.038 78.6725 129.145 78.6725C128.251 78.6725 127.56 77.9484 127.6 77.0547C127.639 76.1615 128.396 75.4375 129.289 75.4375C130.183 75.4375 130.874 76.1615 130.835 77.0547Z" fill="#062743"/>
<path d="M115.138 104.292C115.098 105.185 114.342 105.909 113.449 105.909C112.556 105.909 111.864 105.185 111.903 104.292C111.943 103.398 112.7 102.674 113.593 102.674C114.486 102.674 115.178 103.398 115.138 104.292Z" fill="#062743"/>
<path d="M122.378 104.292C122.338 105.185 121.581 105.909 120.688 105.909C119.794 105.909 119.103 105.185 119.143 104.292C119.183 103.398 119.939 102.674 120.832 102.674C121.726 102.674 122.418 103.398 122.378 104.292Z" fill="#062743"/>
<path d="M129.617 104.292C129.577 105.185 128.82 105.909 127.927 105.909C127.034 105.909 126.342 105.185 126.382 104.292C126.422 103.398 127.178 102.674 128.072 102.674C128.965 102.674 129.657 103.398 129.617 104.292Z" fill="#062743"/>
<path d="M136.857 104.292C136.816 105.185 136.06 105.909 135.167 105.909C134.273 105.909 133.581 105.185 133.622 104.292C133.661 103.398 134.418 102.674 135.311 102.674C136.204 102.674 136.896 103.398 136.857 104.292Z" fill="#062743"/>
<path d="M144.095 104.292C144.056 105.185 143.299 105.909 142.406 105.909C141.513 105.909 140.821 105.185 140.861 104.292C140.9 103.398 141.657 102.674 142.55 102.674C143.444 102.674 144.136 103.398 144.095 104.292Z" fill="#062743"/>
<path d="M144.788 34.8157C144.651 37.8876 142.05 40.3776 138.978 40.3776C135.907 40.3776 133.528 37.8876 133.666 34.8157C133.803 31.7444 136.404 29.2544 139.475 29.2544C142.547 29.2544 144.926 31.7444 144.788 34.8157Z" fill="#113A5D"/>
<path d="M149.783 47.4923C147.131 50.9291 142.976 53.1631 138.404 53.1631C133.831 53.1631 129.883 50.9291 127.538 47.4923C130.147 44.8949 134.276 43.2068 138.849 43.2068C143.427 43.2068 147.405 44.8949 149.783 47.4923Z" fill="#113A5D"/>
<path d="M138.979 40.3776C135.991 40.3776 133.659 38.0217 133.66 35.0664C133.66 34.9832 133.662 34.9 133.666 34.8157C133.803 31.7444 136.404 29.2544 139.476 29.2544C142.463 29.2544 144.795 31.6102 144.794 34.565C144.794 34.6482 144.792 34.732 144.788 34.8157C144.651 37.8876 142.05 40.3776 138.979 40.3776Z" fill="#113A5D"/>
<path d="M138.404 53.1631C133.831 53.1631 129.883 50.9291 127.538 47.4923C130.147 44.8949 134.276 43.2068 138.849 43.2068C143.427 43.2068 147.405 44.8949 149.783 47.4923C147.131 50.9291 142.976 53.1631 138.404 53.1631Z" fill="#113A5D"/>
<path d="M70.8083 84.5338C70.2995 85.6486 69.7649 86.8756 69.2947 88.0721C68.8212 89.2798 68.3489 90.4885 67.9377 91.7139C67.1374 94.1658 66.3876 96.6403 66.0188 99.1212L65.8965 99.9118C65.8868 100.007 65.8938 100.142 65.9356 100.312C66.0145 100.653 66.2271 101.109 66.5255 101.557C67.1299 102.462 67.9866 103.379 68.9103 104.231C69.8319 105.095 70.833 105.922 71.8732 106.708C72.9033 107.5 73.9897 108.276 75.0524 109.002L74.0525 110.885C71.4986 109.769 69.1202 108.434 66.8165 106.759C65.6839 105.896 64.5653 104.966 63.5745 103.711C63.086 103.078 62.6061 102.362 62.2911 101.417C62.1386 100.946 62.0329 100.413 62.0323 99.8372C62.0356 99.7041 62.0431 99.5184 62.0522 99.4287L62.079 99.1625L62.1322 98.629C62.4242 95.7836 63.0543 93.0489 63.8847 90.3962C64.3034 89.0715 64.7505 87.7607 65.2604 86.4736C65.7811 85.1779 66.2947 83.9348 66.9453 82.6315L70.8083 84.5338Z" fill="#D5D5D5"/>
<path d="M74.3004 108.682L78.0931 106.758L77.113 110.927C77.113 110.927 74.5087 111.654 73.2977 110.39L74.3004 108.682Z" fill="white"/>
<path d="M81.5665 107.442L80.5574 110.888L77.113 110.927L78.0932 106.758L81.5665 107.442Z" fill="white"/>
<path d="M86.9243 64.4371C86.9243 64.4371 87.2534 65.647 87.7751 66.5589C87.3264 66.9776 86.9243 66.8321 86.9243 66.8321V64.4371Z" fill="#062743"/>
<path d="M86.4095 63.8531C86.4095 64.1929 86.5899 64.4683 86.8116 64.4683C87.0338 64.4683 87.2136 64.1929 87.2136 63.8531C87.2136 63.5139 87.0338 63.238 86.8116 63.238C86.5899 63.238 86.4095 63.5139 86.4095 63.8531Z" fill="#062743"/>
<path d="M86.7139 63.2572L87.5297 63.0221C87.5297 63.0221 87.1105 63.6592 86.7139 63.2572Z" fill="#062743"/>
<path d="M76.4384 68.3737C76.9285 70.8728 77.4169 75.4508 75.6687 77.1185C75.6687 77.1185 76.352 79.6531 80.9949 79.6531C86.1005 79.6531 83.435 77.1185 83.435 77.1185C80.6487 76.4535 80.7206 74.3859 81.2059 72.4445L76.4384 68.3737Z" fill="white"/>
<path d="M75.0836 62.6873C75.3396 66.8589 75.3589 68.6297 77.4657 70.7708C80.6347 73.9919 85.7022 72.7649 86.6979 68.6007C87.5937 64.8531 87.0242 58.6611 82.9411 57.0003C78.9182 55.3649 74.8275 58.5161 75.0836 62.6873Z" fill="#D5D5D5"/>
<path d="M75.4947 57.9675C73.403 58.7302 70.6118 58.1623 71.7073 64.6189C72.8667 71.4556 71.082 73.7046 71.082 73.7046C71.082 73.7046 79.0212 75.3959 87.1267 73.6032C87.1267 73.6032 84.6523 69.2758 85.3463 66.1186C86.232 62.0908 85.5299 60.6024 85.5299 60.6024C85.5299 60.6024 78.4367 56.895 75.4947 57.9675Z" fill="#062743"/>
<path d="M84.3517 64.8617C84.3432 65.6883 84.633 66.5208 85.0087 67.0988C85.5745 67.9689 86.2449 67.6147 86.4129 66.7118C86.5643 65.8987 86.4521 64.4671 85.728 63.9116C85.0146 63.3646 84.3619 63.9164 84.3517 64.8617Z" fill="#D5D5D5"/>
<path d="M73.6778 58.6976C73.074 57.0095 75.9424 54.4132 82.0067 55.4931C88.0704 56.5725 88.3366 61.6164 88.3366 61.6164L87.1096 60.1602L87.1643 61.6937L80.9326 62.8912L73.6778 58.6976Z" fill="#062743"/>
<path d="M74.1914 77.4019C74.1082 76.8866 74.4544 76.4003 74.9702 76.3155C76.8586 76.0036 81.1505 75.3719 83.3109 75.6714C84.9153 75.8941 85.3398 76.8313 85.408 77.5973C85.4579 78.1657 84.9883 78.645 84.4182 78.6192L75.0846 78.1974C74.6364 78.1775 74.2633 77.8452 74.1914 77.4019Z" fill="#113A5D"/>
<path d="M85.3709 77.3364C84.729 77.2527 84.0736 77.177 83.4348 77.1185C82.32 77.0171 81.2384 76.9779 80.1317 76.9779C78.7259 76.9779 77.2788 77.0407 75.6685 77.1185C75.1677 77.1427 74.668 77.1781 74.1796 77.221C74.1924 76.7771 74.5156 76.3907 74.9702 76.3155C76.5123 76.0611 79.6566 75.593 81.9346 75.593C82.4467 75.593 82.9142 75.6167 83.3109 75.6714C84.737 75.8695 85.2308 76.6317 85.3709 77.3364Z" fill="#223263"/>
<path d="M79.5853 171.176L83.0447 173.578L88.8374 165.727L85.378 163.326L79.5853 171.176Z" fill="white"/>
<path d="M71.5099 171.018L75.1695 173.102L80.296 164.799L76.637 162.715L71.5099 171.018Z" fill="white"/>
<path d="M88.8346 165.729L85.8498 169.776L82.3893 167.374L85.3742 163.327L88.8346 165.729Z" fill="#062743"/>
<path d="M76.6348 162.717L80.2955 164.802L77.6509 169.08L73.9902 166.995L76.6348 162.717Z" fill="#062743"/>
<path d="M82.5041 103.613C82.5041 103.613 96.0196 120.647 93.4839 136.936C91.4362 150.092 79.5755 167.909 79.5755 167.909L73.9986 165.137C73.9986 165.137 80.0581 153.297 84.0365 140.745C85.7053 135.483 84.9935 129.683 81.8745 125.127C75.0281 115.128 64.0595 121.078 71.4378 103.613H82.5041Z" fill="#113A5D"/>
<path d="M79.5756 167.909L78.6573 167.452L75.1045 165.686V162.889C77.0373 158.87 81.1027 150.001 84.0366 140.745C84.6201 138.905 84.9126 137 84.9126 135.105C84.9131 132.985 84.5481 130.878 83.8155 128.89C85.0098 128.578 85.8975 127.487 85.8975 126.199V120.524C85.8975 120.198 85.8407 119.884 85.7365 119.593C86.8852 121.187 88.0118 122.822 89.0692 124.461C90.1873 131.383 91.4884 139.413 92.0461 142.854C92.2925 142.082 92.5168 141.313 92.717 140.553C92.6821 140.686 92.6462 140.821 92.6097 140.955C92.5426 141.2 92.4739 141.445 92.4025 141.691C91.9157 143.37 91.3236 145.077 90.6634 146.775C88.6092 152.061 85.897 157.253 83.67 161.168C83.5879 161.313 83.5063 161.455 83.4258 161.596C82.779 162.724 82.1789 163.736 81.6534 164.603C81.603 164.685 81.553 164.768 81.5047 164.847C80.3357 166.766 79.5756 167.909 79.5756 167.909ZM84.8085 118.321C84.3393 117.959 83.7521 117.743 83.1172 117.743H72.1974C70.2924 116.601 68.9844 115.286 68.9844 112.553C68.9844 110.654 69.6167 108.069 71.1196 104.38H73.4067C75.1828 106.353 80.0727 111.899 84.8085 118.321Z" fill="#223263"/>
<path d="M92.717 140.553C93.0407 139.321 93.3016 138.11 93.4841 136.936C93.6864 135.639 93.7863 134.336 93.7997 133.038C93.8002 133.039 93.8002 133.039 93.8007 133.04C93.7873 134.338 93.6875 135.639 93.4857 136.936C93.3016 138.109 93.0412 139.321 92.717 140.553Z" fill="#D5D5D5"/>
<path d="M92.0461 142.854C91.4884 139.413 90.1873 131.383 89.0692 124.461C90.9581 127.387 92.6252 130.321 93.7996 133.038C93.7862 134.336 93.6864 135.639 93.484 136.936C93.3015 138.11 93.0407 139.321 92.717 140.553C92.5168 141.313 92.2924 142.082 92.0461 142.854Z" fill="#062743"/>
<path d="M88.5405 103.613C88.5405 103.613 104.814 125.019 105.272 137.856C105.655 148.611 87.5453 169.387 87.5453 169.387L82.2878 165.986C82.2878 165.986 92.8775 151.216 95.5435 139.142C94.5269 127.191 72.7089 103.613 72.7089 103.613H88.5405Z" fill="#113A5D"/>
<path d="M87.5454 169.387L86.5916 168.77L83.0496 166.479L82.2879 165.986C82.2879 165.986 92.8776 151.215 95.5436 139.142C95.3896 137.333 94.7589 135.257 93.7997 133.038C92.6253 130.321 90.9581 127.387 89.0693 124.461C88.0119 122.822 86.8852 121.187 85.7366 119.593C85.5546 119.085 85.2288 118.645 84.8085 118.321C80.0727 111.899 75.1829 106.353 73.4067 104.38H88.6254C88.7794 104.38 88.9072 104.305 88.9168 104.208L88.9249 104.128C91.3864 107.459 104.856 126.194 105.272 137.856C105.276 137.966 105.278 138.077 105.278 138.189C105.279 139.512 105.016 140.976 104.554 142.528C104.47 142.806 104.381 143.087 104.286 143.37C104.262 143.44 104.239 143.508 104.215 143.578C104 144.201 103.755 144.837 103.487 145.48C103.458 145.549 103.429 145.617 103.4 145.687C103.302 145.916 103.203 146.145 103.1 146.375C101.523 149.905 99.2719 153.635 96.9709 157.04C96.9236 157.11 96.8775 157.178 96.8308 157.247C96.3912 157.894 95.9494 158.53 95.5119 159.15C95.4631 159.219 95.4143 159.288 95.3654 159.356C94.4159 160.693 93.4825 161.955 92.6097 163.101C92.5399 163.193 92.4712 163.283 92.4025 163.373C91.7842 164.181 91.1997 164.929 90.6634 165.604C88.81 167.937 87.5454 169.387 87.5454 169.387Z" fill="#223263"/>
<path d="M68.4063 78.0755C66.6635 78.4866 64.9979 84.8134 64.9979 84.8134L71.7949 89.3506C71.7949 89.3506 74.0594 84.3502 73.2688 82.1591C72.4454 79.8779 70.607 77.5559 68.4063 78.0755Z" fill="#113A5D"/>
<path d="M70.5758 88.5375L70.3514 88.3872L70.5758 88.5369V88.5375Z" fill="#D5D5D5"/>
<path d="M70.5759 88.5369L70.3515 88.3871L69.2614 87.6577L69.6172 83.5295C70.0058 85.3888 70.3209 87.0404 70.5759 88.5369Z" fill="#113A5D"/>
<path d="M90.5528 78.1974C90.5528 78.1974 92.5592 78.9037 88.5405 103.613C81.7538 103.613 74.74 103.613 71.4379 103.613C71.725 96.6521 71.7331 92.3602 68.4062 78.0755C68.4062 78.0755 71.9896 77.2956 75.6686 77.1185C78.5466 76.98 80.9046 76.8877 83.4349 77.1185C86.7703 77.4234 90.5528 78.1974 90.5528 78.1974Z" fill="#113A5D"/>
<path d="M92.2897 82.121C92.6772 83.1918 93.0873 84.3496 93.5135 85.4623C93.9231 86.5917 94.3487 87.7178 94.7872 88.8401L96.1034 92.2115L96.4361 93.0542L96.6031 93.475L96.6868 93.686L96.6933 93.716C96.6702 93.7064 96.6503 93.5995 96.3175 93.3816C96.1543 93.2802 95.8811 93.1825 95.6165 93.1766C95.3508 93.1674 95.1399 93.2319 95.0196 93.2845C94.7776 93.4004 94.7738 93.4498 94.7792 93.4417C94.7948 93.4337 94.8447 93.3859 94.9 93.3199C95.1345 93.0386 95.4174 92.5523 95.6664 92.0692C95.9203 91.577 96.1603 91.051 96.3991 90.518C96.8741 89.4477 97.3062 88.3318 97.7458 87.2132C98.1806 86.0919 98.5901 84.954 98.9959 83.8129L100.218 80.3873L102.286 80.9085C101.877 83.3588 101.348 85.7586 100.717 88.1676C100.409 89.3737 100.053 90.5706 99.6454 91.7783C99.4425 92.3833 99.2155 92.9866 98.9546 93.6017C98.683 94.2222 98.4146 94.833 97.9342 95.5431C97.8086 95.7229 97.6653 95.913 97.4662 96.1223C97.2558 96.3279 97.0126 96.5775 96.4882 96.8131C96.2279 96.9253 95.8645 97.0246 95.4464 97.0079C95.0293 96.9961 94.6063 96.8485 94.3138 96.6666C93.7186 96.2871 93.513 95.9248 93.3375 95.6532C93.2559 95.5168 93.1861 95.3762 93.1378 95.2748L93.0358 95.0665L92.8324 94.65L92.4266 93.8164C91.8963 92.6999 91.3767 91.5765 90.8839 90.4413C90.3966 89.3033 89.9215 88.159 89.461 87.006C89.0198 85.8354 88.5839 84.7012 88.1964 83.4559L92.2897 82.121Z" fill="#D5D5D5"/>
<path d="M90.5529 78.1974C92.6086 78.6869 94.9188 84.7609 94.9188 84.7609L88.8089 89.9663C88.8089 89.9663 84.8498 83.3433 85.6507 81.1565C86.4848 78.8791 87.8675 77.5576 90.5529 78.1974Z" fill="#113A5D"/>
<path d="M101.172 78.4937L103.315 76.7004L104.807 79.024L103.708 80.9644C103.708 80.9644 101.958 82.5656 100.409 81.7513C99.9096 80.6166 100.22 79.2887 101.172 78.4937Z" fill="#D5D5D5"/>
<path d="M107.208 76.7058L107.047 77.2898L103.65 77.8604L103.315 76.7004L107.208 76.7058Z" fill="#D5D5D5"/>
<path d="M87.9813 169.669L81.8521 165.704L82.9497 163.796L89.8379 168.03L87.9813 169.669Z" fill="#113A5D"/>
<path d="M76.3508 172.235C77.018 172.575 77.5542 172.7 77.8124 172.571C77.9224 172.517 77.9858 172.414 78.0072 172.258C78.0185 172.174 77.989 172.137 77.9616 172.115C77.7458 171.932 76.9391 172.074 76.3508 172.235ZM77.558 172.821C77.0706 172.821 76.4292 172.512 76.0406 172.296L75.9901 172.198L76.0588 172.114C76.2247 172.061 77.6782 171.615 78.0904 171.962C78.1548 172.016 78.2273 172.117 78.2048 172.285C78.1742 172.508 78.0727 172.665 77.902 172.75C77.8027 172.799 77.6857 172.821 77.558 172.821Z" fill="#062743"/>
<path d="M77.1303 170.845C77.0803 170.845 77.031 170.856 76.98 170.88C76.6515 171.039 76.3756 171.668 76.2441 172.051C76.7164 171.852 77.3611 171.325 77.3841 171.031C77.3879 170.983 77.3772 170.921 77.2585 170.871L77.1303 170.845ZM76.0895 172.308L76.0176 172.278L75.9934 172.182C76.0074 172.132 76.3423 170.966 76.8935 170.701C77.0406 170.63 77.1898 170.626 77.3358 170.687C77.5677 170.784 77.5903 170.955 77.5827 171.047C77.5452 171.529 76.5613 172.196 76.1131 172.305L76.0895 172.308Z" fill="#062743"/>
<path d="M83.6705 173.958C84.3489 174.618 84.942 174.983 85.2823 174.937C85.4015 174.922 85.4917 174.858 85.5588 174.74L85.5657 174.614C85.4224 174.327 84.4257 174.08 83.6705 173.958ZM85.226 175.14C84.6216 175.14 83.7783 174.364 83.3173 173.886L83.2996 173.773L83.4015 173.718C83.6136 173.745 85.4804 173.997 85.7445 174.525C85.7949 174.626 85.7906 174.736 85.7321 174.839C85.6334 175.012 85.4901 175.112 85.307 175.136L85.226 175.14Z" fill="#062743"/>
<path d="M83.591 173.74C84.1906 173.774 85.1492 173.575 85.2743 173.313C85.285 173.291 85.3167 173.225 85.1777 173.105C85.0618 173.007 84.9276 172.965 84.773 172.979C84.3216 173.019 83.8192 173.497 83.591 173.74ZM83.729 173.942C83.5916 173.942 83.4681 173.933 83.371 173.915L83.2953 173.851L83.3119 173.753C83.3425 173.716 84.0688 172.841 84.7553 172.781C84.97 172.764 85.1514 172.821 85.307 172.954C85.518 173.135 85.5035 173.296 85.4541 173.398C85.284 173.756 84.3565 173.942 83.729 173.942Z" fill="#062743"/>
<path d="M76.2365 171.743L71.6843 170.457C71.5184 170.409 71.3515 170.487 71.2828 170.642L69.7455 174.097C69.5861 174.455 69.8072 174.9 70.1916 175.002C71.7863 175.423 72.578 175.545 74.5801 176.112C75.8114 176.46 77.5746 177.096 79.2756 177.578C80.939 178.047 81.5423 176.402 80.8773 176.05C77.8945 174.469 77.6594 173.385 76.8436 172.184C76.6965 171.967 76.4791 171.812 76.2365 171.743Z" fill="#113A5D"/>
<path d="M83.4413 173.26L79.5552 170.561C79.4135 170.464 79.231 170.482 79.115 170.606L76.5375 173.373C76.2702 173.661 76.3352 174.153 76.6653 174.374C78.0362 175.291 78.7441 175.665 80.4532 176.852C81.5047 177.581 83.6039 179.2 85.0553 180.208C86.4756 181.194 87.5813 179.835 87.0671 179.285C84.7612 176.819 84.2523 175.275 83.8718 173.874C83.8031 173.621 83.6485 173.403 83.4413 173.26Z" fill="#113A5D"/>
<path d="M80.2911 168.264L73.2832 164.781L74.0084 162.884L81.4886 166.552L80.2911 168.264Z" fill="#113A5D"/>
<path d="M71.1818 102.61L70.5892 104.14C70.5291 104.259 70.6697 104.38 70.8673 104.38H88.6253C88.7793 104.38 88.9071 104.305 88.9167 104.208L89.0713 102.677C89.0815 102.571 88.9479 102.481 88.7793 102.481H71.4604C71.3332 102.481 71.2205 102.533 71.1818 102.61Z" fill="#113A5D"/>
<path d="M88.6254 104.38H70.8674C70.7015 104.38 70.5754 104.295 70.5748 104.197C70.5748 104.179 70.5797 104.159 70.5893 104.14L71.1819 102.61C71.2205 102.533 71.3333 102.481 71.4605 102.481H88.7794C88.9415 102.481 89.0714 102.564 89.072 102.665C89.072 102.669 89.0714 102.673 89.0714 102.677L88.9168 104.208C88.9072 104.305 88.7794 104.38 88.6254 104.38Z" fill="#062743"/>
<path d="M73.9751 104.546H73.5109C73.4185 104.546 73.3482 104.498 73.3547 104.44L73.572 102.451C73.5785 102.393 73.6595 102.345 73.7519 102.345H74.2156C74.3079 102.345 74.3782 102.393 74.3718 102.451L74.1544 104.44C74.148 104.498 74.0669 104.546 73.9751 104.546Z" fill="#113A5D"/>
<path d="M84.9282 104.546H84.4645C84.3721 104.546 84.3018 104.498 84.3083 104.44L84.5257 102.451C84.5321 102.393 84.6126 102.345 84.7049 102.345H85.1692C85.261 102.345 85.3319 102.393 85.3254 102.451L85.1075 104.44C85.1016 104.498 85.0205 104.546 84.9282 104.546Z" fill="#113A5D"/>
<path d="M73.5324 195.451C73.5281 195.451 73.5233 195.451 73.5184 195.451C65.5766 195.45 59.1597 194.983 59.186 194.407C59.2005 194.089 61.1736 193.804 64.2739 193.613C64.2567 194.003 64.5272 194.407 65.0254 194.407H73.5726H82.1189C82.6186 194.407 82.8891 194.001 82.8709 193.61C85.9889 193.802 87.9615 194.088 87.9464 194.409C87.9207 194.985 81.4683 195.451 73.5324 195.451Z" fill="#EEEEEE"/>
<path d="M82.3298 192.936C79.7856 192.197 76.9853 191.245 75.2527 190.233C75.2043 190.205 75.1534 190.185 75.1045 190.159V178.658H80.2219C81.0679 178.658 81.7538 177.972 81.7538 177.126C81.7538 176.279 81.0679 175.593 80.2219 175.593H75.1045V123.086H72.0402V175.593H66.9227C66.0763 175.593 65.3903 176.279 65.3903 177.126C65.3903 177.972 66.0763 178.658 66.9227 178.658H72.0402V190.159C71.9908 190.185 71.9403 190.205 71.892 190.233C70.1594 191.245 67.3591 192.197 64.8149 192.936C63.9802 193.178 64.1563 194.407 65.0253 194.407H73.5726H82.1188C82.9884 194.407 83.1644 193.178 82.3298 192.936Z" fill="#E3E3E2"/>
<path d="M83.1172 128.979H64.0275C62.4983 128.979 61.2471 127.728 61.2471 126.199V120.524C61.2471 118.995 62.4983 117.743 64.0275 117.743H83.1172C84.6464 117.743 85.8976 118.995 85.8976 120.524V126.199C85.8976 127.728 84.6464 128.979 83.1172 128.979Z" fill="#113A5D"/>
<path d="M63.8519 128.979V129.956C63.8519 130.762 64.7285 131.42 65.7993 131.42H81.3453C82.4162 131.42 83.2927 130.762 83.2927 129.956V128.979H63.8519Z" fill="#113A5D"/>
<path d="M81.3453 131.42H65.7993C64.7285 131.42 63.8519 130.762 63.8519 129.956V128.979H83.2927V129.956C83.2927 130.762 82.4162 131.42 81.3453 131.42Z" fill="#062743"/>
</g>
<defs>
<clipPath id="clip0_98_2363">
<rect width="268.378" height="200" fill="white" transform="translate(0.811035)"/>
</clipPath>
</defs>
</svg>
