<svg width="26" height="26" viewBox="0 0 26 26" fill="none" xmlns="http://www.w3.org/2000/svg">
<path fill-rule="evenodd" clip-rule="evenodd" d="M1.29163 13.0001C1.29163 6.6718 6.42168 1.54175 12.75 1.54175C19.0782 1.54175 24.2083 6.6718 24.2083 13.0001C24.2083 19.3284 19.0782 24.4584 12.75 24.4584C6.42168 24.4584 1.29163 19.3284 1.29163 13.0001ZM12.75 13.5209C14.4758 13.5209 15.875 12.1218 15.875 10.3959C15.875 8.67003 14.4758 7.27091 12.75 7.27091C11.0241 7.27091 9.62496 8.67003 9.62496 10.3959C9.62496 12.1218 11.0241 13.5209 12.75 13.5209ZM7.02079 18.7292C7.02079 16.4465 8.35579 14.4757 10.2876 13.5548C10.9916 14.0268 11.8387 14.3022 12.75 14.3022C13.6613 14.3022 14.5083 14.0268 15.2123 13.5548C17.1441 14.4757 18.4791 16.4465 18.4791 18.7292H7.02079Z" fill="#888888"/>
</svg>
