<svg width="26" height="24" viewBox="0 0 26 24" fill="none" xmlns="http://www.w3.org/2000/svg">
<path d="M23.3896 4.6949H2.61039C1.44156 4.6949 0.5 3.75334 0.5 2.58451C0.5 1.41568 1.44156 0.474121 2.61039 0.474121H23.3896C24.5584 0.474121 25.5 1.41568 25.5 2.58451C25.5 3.75334 24.5584 4.6949 23.3896 4.6949ZM25.5 12.0001C25.5 10.8313 24.5584 9.8897 23.3896 9.8897H2.61039C1.44156 9.8897 0.5 10.8313 0.5 12.0001C0.5 13.1689 1.44156 14.1105 2.61039 14.1105H23.3896C24.5584 14.1105 25.5 13.1689 25.5 12.0001ZM25.5 21.4157C25.5 20.2468 24.5584 19.3053 23.3896 19.3053H2.61039C1.44156 19.3053 0.5 20.2468 0.5 21.4157C0.5 22.5845 1.44156 23.5261 2.61039 23.5261H23.3896C24.5584 23.5261 25.5 22.5845 25.5 21.4157Z" fill="#888888"/>
</svg>
