<svg width="307" height="266" viewBox="0 0 307 266" fill="none" xmlns="http://www.w3.org/2000/svg">
<path d="M66.4913 145.124C67.7067 141.453 72.1271 139.331 76.3642 140.384C80.6014 141.436 83.051 145.267 81.8355 148.938C80.62 152.609 76.1999 154.732 71.9626 153.679C67.7254 152.625 65.2759 148.796 66.4913 145.124ZM68.2506 160.019L71.231 160.76L72.8581 158.187C73.5836 158.251 74.3055 158.264 75.0178 158.223L76.5378 160.841L79.5464 160.192L79.4706 157.257C80.1274 157.001 80.7586 156.697 81.3576 156.35L84.1889 157.962L86.4194 156.096L84.6631 153.592C85.0805 153.09 85.4513 152.553 85.7727 151.986L89.1534 152.154L90.0084 149.572L87.0386 148.162C87.113 147.533 87.1272 146.907 87.0802 146.291L90.1017 144.974L89.3519 142.367L85.9654 142.432C85.6697 141.864 85.32 141.317 84.9198 140.798L86.7791 138.344L84.6255 136.412L81.735 137.934C81.1561 137.572 80.5363 137.251 79.8815 136.972L80.0762 134.043L77.0959 133.302L75.4688 135.876C74.7433 135.811 74.0213 135.798 73.309 135.84L71.789 133.221L68.7806 133.871L68.8563 136.805C68.1994 137.061 67.5682 137.364 66.9692 137.711L64.1379 136.1L61.9075 137.967L63.6637 140.47C63.2462 140.972 62.8757 141.51 62.5542 142.077L59.1734 141.908L58.3184 144.49L61.2882 145.9C61.2138 146.529 61.1996 147.154 61.2466 147.771L58.2252 149.089L58.975 151.695L62.3613 151.63C62.6571 152.199 63.0068 152.746 63.407 153.265L61.5478 155.717L63.7014 157.651L66.5918 156.129C67.1707 156.491 67.7906 156.811 68.4453 157.09L68.2506 160.019Z" fill="white"/>
<path d="M66.7525 145.189C65.5804 148.73 67.9513 152.437 72.0376 153.452C74.0174 153.945 76.0994 153.738 77.9005 152.874C79.7018 152.009 81.0064 150.588 81.5744 148.873C82.7466 145.333 80.3757 141.626 76.2894 140.61C74.3099 140.118 72.2273 140.323 70.4263 141.188C68.6251 142.053 67.3202 143.474 66.7525 145.189ZM74.1755 154.185C73.4111 154.185 72.6427 154.093 71.8878 153.905C67.5132 152.818 64.9752 148.849 66.2302 145.059C66.838 143.223 68.2347 141.702 70.1628 140.777C72.0911 139.85 74.3207 139.631 76.4391 140.157C80.8136 141.245 83.3518 145.213 82.0967 149.002C81.4889 150.839 80.0923 152.36 78.1642 153.286C76.9227 153.882 75.5565 154.185 74.1755 154.185ZM75.0178 157.987C75.12 157.987 75.2142 158.037 75.2606 158.117L76.6831 160.567L79.2696 160.009L79.1988 157.262C79.1964 157.168 79.2596 157.081 79.3589 157.042C80.0002 156.792 80.6218 156.493 81.2066 156.155C81.2973 156.103 81.4154 156.103 81.5067 156.154L84.1565 157.661L86.0742 156.058L84.4309 153.714C84.3741 153.633 84.379 153.531 84.4426 153.454C84.8485 152.966 85.2139 152.437 85.5288 151.882C85.5768 151.797 85.6723 151.744 85.7884 151.751L88.9521 151.908L89.6873 149.688L86.9079 148.368C86.8122 148.323 86.7569 148.232 86.7681 148.139C86.841 147.524 86.8549 146.907 86.809 146.306C86.8018 146.212 86.8604 146.123 86.958 146.081L89.7851 144.848L89.1404 142.607L85.9715 142.668C85.8611 142.672 85.7626 142.615 85.7175 142.529C85.4289 141.974 85.0847 141.435 84.6937 140.929C84.6332 140.85 84.6327 140.747 84.6926 140.668L86.4328 138.373L84.581 136.711L81.8762 138.135C81.783 138.184 81.6644 138.181 81.5759 138.125C81.0135 137.773 80.4031 137.457 79.7617 137.184C79.6636 137.142 79.6038 137.054 79.6103 136.959L79.7925 134.217L77.2301 133.581L75.7071 135.989C75.6548 136.072 75.5542 136.12 75.4408 136.11C74.7306 136.046 74.0192 136.034 73.327 136.075C73.2139 136.081 73.1151 136.03 73.066 135.945L71.6439 133.496L69.0572 134.054L69.1282 136.799C69.1305 136.894 69.0674 136.981 68.9678 137.02C68.327 137.27 67.7054 137.569 67.1202 137.907C67.0294 137.96 66.9113 137.96 66.8199 137.908L64.1705 136.4L62.2527 138.005L63.896 140.349C63.9528 140.43 63.948 140.532 63.8843 140.609C63.4784 141.096 63.1132 141.625 62.7982 142.18C62.7498 142.265 62.6511 142.318 62.5386 142.312L59.3749 142.154L58.6397 144.374L61.419 145.693C61.5148 145.739 61.57 145.83 61.5588 145.924C61.4856 146.539 61.4721 147.156 61.518 147.755C61.5251 147.85 61.4666 147.94 61.3688 147.982L58.5417 149.214L59.1865 151.455L62.3551 151.394C62.4635 151.391 62.564 151.447 62.6092 151.533C62.8968 152.087 63.2414 152.625 63.6332 153.134C63.6937 153.213 63.6943 153.315 63.6342 153.394L61.894 155.69L63.746 157.352L66.4508 155.927C66.5442 155.878 66.6627 155.882 66.7509 155.938C67.3131 156.289 67.9234 156.606 68.5652 156.878C68.6631 156.921 68.7228 157.009 68.7164 157.104L68.5343 159.845L71.0968 160.482L72.6196 158.074C72.672 157.991 72.7749 157.943 72.8855 157.953C73.5966 158.016 74.3078 158.027 74.9998 157.988C75.0058 157.988 75.0119 157.987 75.0178 157.987ZM76.5378 161.077C76.437 161.077 76.342 161.028 76.2949 160.947L74.8553 158.467C74.2496 158.494 73.6304 158.484 73.0103 158.436L71.4692 160.874C71.4082 160.969 71.2773 161.017 71.156 160.986L68.1757 160.246C68.0534 160.215 67.9719 160.116 67.9794 160.005L68.1636 157.231C67.6088 156.987 67.0777 156.712 66.5803 156.41L63.8426 157.852C63.7343 157.908 63.5942 157.893 63.5058 157.813L61.3521 155.881C61.2639 155.803 61.2507 155.68 61.3206 155.589L63.0819 153.265C62.7475 152.818 62.4479 152.349 62.1888 151.868L58.9813 151.931C58.9791 151.931 58.977 151.931 58.9752 151.931C58.8507 151.931 58.7416 151.857 58.7113 151.752L57.9615 149.145C57.931 149.039 57.9897 148.928 58.1032 148.878L60.9648 147.631C60.9335 147.105 60.9454 146.569 61.0007 146.032L58.1879 144.696C58.0764 144.644 58.0223 144.532 58.0573 144.425L58.9123 141.843C58.9471 141.737 59.0529 141.665 59.1891 141.673L62.391 141.832C62.6726 141.352 62.9906 140.892 63.3385 140.461L61.6754 138.089C61.6093 137.994 61.6273 137.873 61.7189 137.796L63.9493 135.931C64.0408 135.855 64.1815 135.843 64.2873 135.904L66.9689 137.429C67.4843 137.14 68.025 136.88 68.5805 136.656L68.5089 133.877C68.5062 133.766 68.5917 133.669 68.7148 133.643L71.7232 132.994C71.8469 132.966 71.9748 133.017 72.0319 133.116L73.4714 135.595C74.0786 135.568 74.6974 135.578 75.3163 135.626L76.8577 133.189C76.9187 133.092 77.0499 133.046 77.1709 133.075L80.1511 133.817C80.2735 133.847 80.3549 133.947 80.3476 134.056L80.1631 136.831C80.7178 137.075 81.2489 137.351 81.7466 137.652L84.4842 136.211C84.5925 136.154 84.7324 136.17 84.8212 136.248L86.9749 138.182C87.0629 138.26 87.0762 138.382 87.0064 138.474L85.245 140.798C85.579 141.244 85.8786 141.712 86.138 142.194L89.3456 142.132C89.3477 142.131 89.3499 142.131 89.3518 142.131C89.4762 142.131 89.5853 142.205 89.6156 142.31L90.3655 144.917C90.396 145.023 90.3374 145.135 90.2237 145.184L87.3622 146.432C87.3934 146.959 87.3815 147.495 87.3263 148.03L90.139 149.365C90.2506 149.419 90.3046 149.531 90.2696 149.637L89.4147 152.219C89.3799 152.325 89.2682 152.396 89.1377 152.389L85.936 152.23C85.6543 152.711 85.3363 153.17 84.9883 153.602L86.6515 155.974C86.7176 156.067 86.6995 156.189 86.6079 156.265L84.3776 158.132C84.2863 158.208 84.1459 158.219 84.0397 158.159L81.3577 156.632C80.8428 156.922 80.3021 157.181 79.7464 157.407L79.8181 160.186C79.8206 160.296 79.7353 160.393 79.6121 160.419L76.6036 161.069C76.5817 161.074 76.5597 161.077 76.5378 161.077Z" fill="#C4FFDD"/>
<path d="M64.9818 185.636C67.0616 179.354 74.6256 175.722 81.8763 177.524C89.127 179.326 93.3187 185.88 91.2387 192.163C89.1588 198.444 81.5949 202.077 74.3443 200.275C67.0936 198.472 62.9019 191.919 64.9818 185.636ZM67.9923 211.124L73.0922 212.392L75.8765 207.989C77.1181 208.099 78.3536 208.12 79.5723 208.05L82.1734 212.531L87.3213 211.419L87.1918 206.398C88.3159 205.959 89.3958 205.44 90.4208 204.848L95.2657 207.604L99.0825 204.411L96.0772 200.126C96.7917 199.267 97.426 198.348 97.976 197.377L103.761 197.666L105.224 193.247L100.142 190.835C100.269 189.759 100.294 188.689 100.213 187.632L105.384 185.378L104.101 180.918L98.3058 181.031C97.7998 180.056 97.2012 179.121 96.5165 178.233L99.698 174.035L96.0129 170.728L91.0668 173.332C90.0761 172.713 89.0154 172.164 87.8951 171.687L88.2282 166.674L83.1283 165.407L80.3441 169.81C79.1026 169.699 77.867 169.678 76.6482 169.748L74.0471 165.269L68.8991 166.38L69.0288 171.401C67.9048 171.839 66.8246 172.358 65.7996 172.951L60.9549 170.195L57.138 173.387L60.1433 177.673C59.4288 178.532 58.7947 179.451 58.2446 180.421L52.4594 180.133L50.9964 184.552L56.0785 186.964C55.9511 188.04 55.9265 189.11 56.0072 190.167L50.837 192.42L52.1201 196.88L57.9146 196.768C58.4207 197.742 59.0193 198.677 59.7041 199.566L56.5224 203.763L60.2077 207.07L65.1538 204.467C66.1445 205.086 67.2052 205.635 68.3255 206.112L67.9923 211.124Z" fill="#C4FFDD"/>
<path d="M64.9818 185.636L65.243 185.701C64.2572 188.679 64.6687 191.811 66.4019 194.521C68.1348 197.231 70.9824 199.193 74.4192 200.048C75.6474 200.353 76.8865 200.499 78.105 200.499C83.9253 200.499 89.2944 197.18 90.9775 192.098C91.9633 189.119 91.5518 185.987 89.8186 183.277C88.0857 180.568 85.2381 178.605 81.8013 177.751C78.3637 176.896 74.7491 177.253 71.6219 178.755C68.4943 180.256 66.2291 182.724 65.243 185.701L64.9818 185.636ZM78.105 200.97C76.8364 200.97 75.5478 200.818 74.2694 200.501C70.6928 199.612 67.7298 197.57 65.9261 194.749C64.1228 191.93 63.6945 188.67 64.7206 185.571C65.7466 182.473 68.1038 179.905 71.3582 178.342C74.6127 176.78 78.3744 176.409 81.9511 177.297C85.5277 178.187 88.4907 180.229 90.2942 183.049C92.0976 185.869 92.526 189.128 91.4999 192.227C89.7489 197.517 84.161 200.97 78.105 200.97ZM79.5722 207.815C79.6744 207.815 79.7687 207.865 79.8151 207.945L82.3186 212.256L87.0448 211.236L86.9201 206.403C86.9177 206.308 86.981 206.222 87.0802 206.183C88.1876 205.751 89.2606 205.236 90.2698 204.652C90.3605 204.599 90.4787 204.599 90.57 204.651L95.2334 207.304L98.7376 204.372L95.8449 200.248C95.7881 200.167 95.7929 200.065 95.8566 199.987C96.5573 199.147 97.1882 198.233 97.7321 197.274C97.7801 197.189 97.8754 197.136 97.9917 197.142L103.56 197.42L104.903 193.364L100.012 191.041C99.9159 190.995 99.8606 190.905 99.8718 190.81C99.9977 189.747 100.021 188.683 99.942 187.648C99.9349 187.553 99.9936 187.465 100.091 187.422L105.067 185.253L103.889 181.158L98.3121 181.266C98.1992 181.27 98.103 181.214 98.0582 181.128C97.5596 180.168 96.9647 179.238 96.2906 178.363C96.2298 178.285 96.2293 178.183 96.2892 178.104L99.3517 174.063L95.9683 171.027L91.2079 173.533C91.1147 173.582 90.9963 173.579 90.9076 173.523C89.9364 172.916 88.8826 172.369 87.7754 171.898C87.6771 171.856 87.6174 171.768 87.6237 171.673L87.9445 166.849L83.2624 165.685L80.5825 169.923C80.5301 170.006 80.4264 170.054 80.3165 170.044C79.0888 169.936 77.8607 169.914 76.6662 169.983C76.553 169.99 76.4545 169.939 76.4054 169.854L73.9021 165.542L69.1759 166.563L69.3006 171.395C69.303 171.49 69.2398 171.577 69.1403 171.616C68.034 172.048 66.9608 172.563 65.9507 173.147C65.8596 173.2 65.7414 173.2 65.6505 173.148L60.9874 170.495L57.4831 173.427L60.3756 177.551C60.4324 177.631 60.4276 177.735 60.3637 177.811C59.6631 178.653 59.0323 179.566 58.4886 180.524C58.4402 180.61 58.3421 180.662 58.229 180.656L52.6608 180.379L51.3177 184.436L56.2091 186.757C56.3049 186.803 56.3601 186.894 56.3489 186.988C56.2228 188.051 56.1993 189.116 56.2786 190.151C56.2858 190.245 56.2271 190.334 56.1295 190.376L51.1535 192.546L52.3312 196.641L57.9086 196.532C58.0151 196.527 58.1175 196.585 58.1627 196.671C58.6603 197.629 59.2549 198.559 59.9302 199.435C59.991 199.514 59.9915 199.616 59.9315 199.695L56.869 203.736L60.2522 206.771L65.0126 204.266C65.1063 204.217 65.2245 204.221 65.3128 204.276C66.284 204.883 67.3379 205.43 68.4451 205.901C68.5434 205.942 68.6031 206.031 68.5967 206.125L68.276 210.95L72.9583 212.114L75.6383 207.876C75.6906 207.793 75.7912 207.745 75.9045 207.754C77.131 207.864 78.3593 207.884 79.5541 207.815C79.5603 207.815 79.5664 207.815 79.5722 207.815ZM82.1735 212.766C82.0725 212.766 81.9775 212.717 81.9306 212.636L79.4101 208.295C78.3005 208.35 77.1646 208.331 76.0287 208.239L73.3306 212.505C73.2696 212.602 73.1387 212.649 73.0175 212.618L67.9175 211.351C67.7952 211.321 67.7136 211.221 67.7211 211.111L68.0438 206.254C67.0235 205.81 66.0488 205.305 65.1416 204.749L60.3487 207.272C60.2405 207.329 60.1005 207.314 60.012 207.234L56.327 203.927C56.2388 203.848 56.2255 203.726 56.2954 203.635L59.3786 199.566C58.7606 198.751 58.211 197.891 57.7416 197.007L52.126 197.115C51.9922 197.119 51.8869 197.044 51.8561 196.938L50.5732 192.476C50.5427 192.37 50.6014 192.259 50.715 192.209L55.725 190.026C55.6608 189.064 55.6828 188.08 55.7905 187.096L50.866 184.758C50.7545 184.705 50.7004 184.592 50.7354 184.487L52.1982 180.068C52.2329 179.962 52.3385 179.889 52.475 179.898L58.0809 180.177C58.5919 179.293 59.1753 178.449 59.8179 177.662L56.9058 173.51C56.8398 173.416 56.8578 173.295 56.9493 173.218L60.7662 170.025C60.8576 169.948 60.9983 169.938 61.1041 169.997L65.799 172.669C66.7397 172.134 67.7319 171.658 68.753 171.251L68.6275 166.385C68.6248 166.275 68.7103 166.179 68.8334 166.152L73.9815 165.04C74.1051 165.013 74.2331 165.065 74.2902 165.162L76.8104 169.504C77.9194 169.448 79.0557 169.467 80.192 169.56L82.8901 165.293C82.9512 165.196 83.0821 165.15 83.2033 165.181L88.303 166.448C88.4253 166.479 88.5069 166.578 88.4994 166.688L88.1767 171.544C89.1969 171.988 90.1719 172.493 91.0789 173.05L95.8717 170.527C95.9803 170.47 96.1199 170.485 96.2085 170.564L99.8938 173.871C99.9819 173.951 99.9952 174.072 99.9255 174.164L96.8422 178.233C97.459 179.047 98.009 179.906 98.479 180.792L104.095 180.683C104.097 180.683 104.099 180.683 104.101 180.683C104.225 180.683 104.334 180.756 104.364 180.862L105.647 185.322C105.678 185.428 105.619 185.54 105.506 185.589L100.496 187.774C100.56 188.734 100.538 189.719 100.43 190.703L105.355 193.04C105.466 193.094 105.52 193.206 105.485 193.312L104.022 197.732C103.988 197.837 103.876 197.908 103.746 197.901L98.1398 197.622C97.6286 198.505 97.0452 199.35 96.4026 200.136L99.3149 204.289C99.381 204.383 99.3629 204.504 99.2713 204.581L95.4544 207.774C95.3632 207.85 95.2228 207.861 95.1166 207.801L90.4215 205.13C89.4818 205.664 88.4896 206.14 87.4676 206.548L87.5932 211.414C87.5959 211.523 87.5105 211.621 87.3873 211.648L82.2393 212.758C82.2173 212.764 82.1952 212.766 82.1735 212.766Z" fill="#113A5D"/>
<path d="M174.58 150.556C176.77 148.034 162.327 143.521 162.523 134.662C162.699 126.568 174.886 124.488 174.527 117.074C174.143 109.14 159.999 107.586 159.993 99.4991C159.987 93.267 168.385 92.3281 169.068 85.6604C169.887 77.6506 158.01 76.5863 154.15 66.0081C150.546 56.1291 158.835 51.3813 152.787 43.5604C151.999 42.5412 147.092 36.4571 140.132 36.3683C128.813 36.2231 114.188 51.9706 116.34 65.5951C118.153 77.067 130.505 78.4513 131.228 90.6379C131.84 100.968 123.128 102.696 125.962 110.71C129.317 120.192 142.638 120.937 145.378 131.625C146.814 137.223 143.611 138.783 146.238 142.742C151.786 151.105 172.164 153.336 174.58 150.556Z" fill="#7EFFB5"/>
<path d="M139.982 36.604C135.463 36.604 130.046 39.2686 125.457 43.7586C120.31 48.7944 115.283 57.1677 116.609 65.5636C117.466 70.9888 120.771 74.1852 123.966 77.2772C127.482 80.6782 131.117 84.1963 131.499 90.6272C131.801 95.735 129.849 98.7762 128.126 101.461C126.344 104.237 124.805 106.635 126.222 110.641C127.789 115.073 131.511 117.526 135.451 120.124C139.744 122.954 144.183 125.88 145.643 131.574C146.318 134.207 145.988 135.943 145.697 137.474C145.369 139.203 145.109 140.568 146.473 142.625C150.332 148.44 161.316 151.065 167.758 151.41C171.141 151.59 173.671 151.209 174.363 150.415C175.092 149.573 173.277 148.24 170.98 146.55C167.245 143.807 162.131 140.05 162.249 134.658C162.341 130.48 165.528 127.89 168.609 125.384C171.602 122.952 174.428 120.655 174.255 117.084C174.072 113.277 170.679 111.017 167.091 108.624C163.468 106.209 159.723 103.712 159.72 99.4998C159.717 96.2668 161.956 94.3737 164.121 92.5428C166.257 90.7358 168.466 88.8682 168.795 85.6407C169.205 81.6247 166.264 79.3537 162.856 76.7229C159.54 74.1626 155.78 71.2596 153.89 66.0799C152.187 61.4122 153.119 57.8208 153.941 54.6526C154.897 50.9653 155.723 47.7816 152.56 43.6923C151.657 42.5229 146.811 36.6901 140.128 36.604C140.08 36.604 140.031 36.604 139.982 36.604ZM169.389 151.927C168.865 151.927 168.308 151.912 167.725 151.88C161.165 151.529 149.967 148.836 146.002 142.86C144.542 140.658 144.829 139.148 145.16 137.398C145.444 135.908 145.765 134.221 145.113 131.677C143.696 126.15 139.337 123.277 135.122 120.499C131.287 117.97 127.321 115.356 125.703 110.779C124.217 106.58 125.808 104.101 127.65 101.232C129.338 98.6027 131.25 95.6249 130.955 90.6512C130.584 84.3853 127.173 81.0859 123.562 77.5918C120.311 74.4476 116.95 71.1947 116.07 65.6271C114.719 57.0746 119.823 48.5603 125.051 43.4454C129.863 38.7368 135.371 36.0722 140.137 36.1329C147.091 36.2231 152.081 42.2267 153.012 43.4299C156.305 47.6885 155.414 51.1205 154.471 54.7556C153.625 58.0183 152.75 61.3911 154.409 65.9374C156.254 70.9944 159.954 73.8509 163.217 76.3717C166.736 79.0856 169.772 81.4301 169.337 85.683C168.99 89.0826 166.708 91.0123 164.5 92.8799C162.321 94.7236 160.261 96.4642 160.264 99.4998C160.266 103.481 163.743 105.797 167.421 108.25C170.952 110.605 174.602 113.039 174.798 117.065C174.982 120.851 172.067 123.22 168.982 125.728C165.982 128.166 162.88 130.687 162.793 134.666C162.68 139.835 167.68 143.509 171.33 146.192C173.946 148.113 175.836 149.502 174.798 150.698C174.104 151.495 172.17 151.927 169.389 151.927Z" fill="#113A5D"/>
<path d="M169.979 149.126C169.953 149.126 169.926 149.123 169.899 149.115C161.148 146.767 155.626 143.457 153.487 139.279C151.863 136.106 152.785 133.545 153.763 130.834C154.743 128.111 155.757 125.294 154.307 121.534C152.77 117.556 150.014 115.769 147.348 114.04C144.759 112.361 142.313 110.776 141.225 107.382C139.685 102.583 142.566 99.1708 145.352 95.872C148.049 92.6776 150.838 89.3736 149.764 84.7328C148.899 80.9902 146.079 78.8062 143.095 76.4956C139.867 73.9957 136.207 71.1616 134.495 65.8877C133.222 61.9636 133.355 57.7654 134.889 53.4105C134.934 53.2865 135.085 53.216 135.228 53.2538C135.372 53.2917 135.453 53.4235 135.409 53.5476C133.906 57.8163 133.775 61.9245 135.02 65.7598C136.689 70.9032 140.129 73.5675 143.457 76.1444C146.511 78.5086 149.396 80.7434 150.297 84.6401C151.418 89.4846 148.557 92.8734 145.79 96.1501C142.956 99.5063 140.279 102.677 141.749 107.257C142.788 110.495 145.161 112.033 147.673 113.662C150.407 115.435 153.234 117.267 154.822 121.384C156.328 125.29 155.287 128.179 154.281 130.975C153.335 133.597 152.444 136.076 153.986 139.088C156.057 143.137 161.466 146.359 170.06 148.665C170.203 148.705 170.283 148.837 170.239 148.96C170.202 149.061 170.095 149.126 169.979 149.126Z" fill="#113A5D"/>
<path d="M179.775 184.978C180.762 183.029 168.24 180.116 157.713 166.387C151.341 158.074 148.888 149.957 146.663 142.336C141.155 123.481 145.676 119.785 139.834 111.012C132.822 100.48 123.981 104.535 114.001 93.6895C101.692 80.315 110.9 69.539 98.285 57.4929C91.3921 50.912 79.1427 45.0578 68.3768 48.0588C61.8614 49.8751 55.0529 55.1682 54.8752 60.929C54.7036 66.4905 60.8353 68.3462 65.6338 75.1181C74.2012 87.2076 63.9825 94.4526 69.4426 106.705C76.8527 123.334 100.124 119.982 110.072 139.797C114.078 147.779 110.636 148.986 114.189 156.608C126.179 182.329 177.824 188.832 179.775 184.978Z" fill="#7EFFB5"/>
<path d="M74.4272 47.4949C72.4102 47.4949 70.4073 47.7404 68.46 48.2832C62.0525 50.0701 55.3211 55.2913 55.147 60.9358C55.0456 64.2085 57.2352 66.1976 60.0075 68.7159C61.8603 70.3998 63.9605 72.3075 65.8652 74.9954C70.5655 81.6277 69.6893 86.7281 68.7618 92.127C68.0059 96.5259 67.2245 101.074 69.6961 106.621C73.2335 114.56 80.4481 117.91 88.0862 121.455C96.4672 125.347 105.133 129.37 110.321 139.704C112.408 143.862 112.495 146.243 112.58 148.544C112.658 150.67 112.738 152.868 114.441 156.52C123.763 176.519 158.587 185.564 174.294 185.765C177.807 185.81 179.296 185.339 179.525 184.884C179.795 184.352 178.222 183.436 176.045 182.167C171.613 179.586 164.195 175.265 157.488 166.517C150.958 158.001 148.535 149.71 146.399 142.394C143.782 133.431 143.43 127.978 143.147 123.595C142.84 118.838 142.637 115.695 139.598 111.13C136.041 105.786 132.111 104.286 127.561 102.548C123.399 100.957 118.682 99.1554 113.788 93.838C107.656 87.1745 106.822 81.1501 106.016 75.3238C105.188 69.3401 104.405 63.6888 98.0836 57.6522C92.4735 52.2954 83.3244 47.4949 74.4272 47.4949ZM174.751 186.238C174.595 186.238 174.438 186.237 174.286 186.235C167.067 186.142 154.457 183.974 142.56 179.338C132.487 175.413 119.345 168.298 113.937 156.696C112.198 152.967 112.116 150.726 112.037 148.559C111.95 146.198 111.868 143.968 109.822 139.892C104.71 129.708 96.1283 125.722 87.8295 121.87C80.0998 118.282 72.7992 114.892 69.1892 106.79C66.6657 101.127 67.4576 96.5164 68.224 92.0578C69.1365 86.7457 69.9988 81.7281 65.4017 75.2424C63.5272 72.5965 61.4485 70.7078 59.6141 69.0416C56.7548 66.4446 54.4963 64.393 54.6033 60.9236C54.784 55.0701 61.7059 49.6712 68.2934 47.8354C79.0589 44.8341 91.4908 50.6563 98.4859 57.3361C104.924 63.4826 105.717 69.2071 106.556 75.2668C107.353 81.028 108.178 86.9845 114.213 93.5435C119.024 98.7715 123.476 100.472 127.781 102.116C132.225 103.813 136.423 105.417 140.068 110.894C143.173 115.557 143.378 118.744 143.69 123.569C143.971 127.931 144.321 133.36 146.926 142.278C149.052 149.558 151.462 157.808 157.939 166.256C164.588 174.927 171.95 179.215 176.349 181.777C179.009 183.327 180.475 184.18 180.024 185.073C179.543 186.021 176.988 186.238 174.751 186.238Z" fill="#113A5D"/>
<path d="M170.768 184.053C170.732 184.053 170.696 184.047 170.663 184.035C160.382 180.298 152.158 175.886 146.218 170.922C141.409 166.901 137.973 162.405 136.006 157.558C133.946 152.485 133.714 147.684 133.488 143.042C133.151 136.092 132.833 129.528 126.452 122.888C121.957 118.21 117.255 116.359 112.707 114.568C107.639 112.574 102.853 110.689 99.5661 104.978C97.2796 101.005 97.2382 97.8141 97.1907 94.1185C97.1435 90.4703 97.0897 86.3359 95.0121 80.261C92.955 74.2458 89.6461 68.5198 85.1779 63.2426C85.0893 63.1379 85.1154 62.9896 85.2363 62.9135C85.3576 62.8363 85.5272 62.8587 85.6165 62.9634C90.122 68.2855 93.4582 74.0601 95.5332 80.1276C97.6328 86.2649 97.6866 90.4354 97.734 94.1135C97.7831 97.9001 97.8219 100.891 100.052 104.768C103.253 110.328 107.738 112.095 112.931 114.139C117.321 115.868 122.296 117.826 126.871 122.586C133.368 129.348 133.691 135.99 134.031 143.022C134.255 147.63 134.487 152.396 136.518 157.402C140.85 168.075 152.41 176.89 170.872 183.601C171.011 183.651 171.076 183.788 171.018 183.908C170.974 183.999 170.873 184.053 170.768 184.053Z" fill="#113A5D"/>
<path d="M242.135 186.278H156.678V35.6438H241.504C243.946 35.6438 245.926 37.3581 245.926 39.4737V182.993C245.926 184.807 244.228 186.278 242.135 186.278Z" fill="#113A5D"/>
<path d="M237.028 186.407H154.865C152.909 186.407 151.324 185.033 151.324 183.338V38.9712C151.324 37.2758 152.909 35.9023 154.865 35.9023H237.028C238.985 35.9023 240.57 37.2758 240.57 38.9712V183.338C240.57 185.033 238.985 186.407 237.028 186.407Z" fill="white"/>
<path d="M177.867 93.4084H167.783C167.108 93.4084 166.559 92.9333 166.559 92.3484V84.4151C166.559 83.8291 167.108 83.3551 167.783 83.3551H177.867C178.543 83.3551 179.09 83.8291 179.09 84.4151V92.3484C179.09 92.9333 178.543 93.4084 177.867 93.4084Z" fill="#113A5D"/>
<path d="M193.766 93.4084H183.55C182.875 93.4084 182.326 92.9333 182.326 92.3484V84.4151C182.326 83.8291 182.875 83.3551 183.55 83.3551H193.766C194.443 83.3551 194.99 83.8291 194.99 84.4151V92.3484C194.99 92.9333 194.443 93.4084 193.766 93.4084Z" fill="#113A5D"/>
<path d="M209.568 93.5366H199.616C198.941 93.5366 198.393 93.0626 198.393 92.4766V84.5436C198.393 83.9587 198.941 83.4836 199.616 83.4836H209.568C210.243 83.4836 210.791 83.9587 210.791 84.5436V92.4766C210.791 93.0626 210.243 93.5366 209.568 93.5366Z" fill="#113A5D"/>
<path d="M225.186 93.5366H215.235C214.56 93.5366 214.011 93.0624 214.011 92.4775V84.544C214.011 83.9579 214.56 83.4837 215.235 83.4837H225.186C225.863 83.4837 226.41 83.9579 226.41 84.544V92.4775C226.41 93.0624 225.863 93.5366 225.186 93.5366Z" fill="#113A5D"/>
<path d="M177.866 107.069H167.783C167.108 107.069 166.56 106.595 166.56 106.009V98.0761C166.56 97.4909 167.108 97.0164 167.783 97.0164H177.866C178.543 97.0164 179.089 97.4909 179.089 98.0761V106.009C179.089 106.595 178.543 107.069 177.866 107.069Z" fill="#113A5D"/>
<path d="M193.768 107.069H183.551C182.875 107.069 182.328 106.595 182.328 106.009V98.0761C182.328 97.4909 182.875 97.0164 183.551 97.0164H193.768C194.443 97.0164 194.991 97.4909 194.991 98.0761V106.009C194.991 106.595 194.443 107.069 193.768 107.069Z" fill="#113A5D"/>
<path d="M209.568 107.199H199.618C198.942 107.199 198.395 106.724 198.395 106.138V98.2046C198.395 97.6197 198.942 97.1446 199.618 97.1446H209.568C210.244 97.1446 210.791 97.6197 210.791 98.2046V106.138C210.791 106.724 210.244 107.199 209.568 107.199Z" fill="#113A5D"/>
<path d="M225.186 107.198H215.235C214.56 107.198 214.011 106.723 214.011 106.139V98.205C214.011 97.6201 214.56 97.1459 215.235 97.1459H225.186C225.863 97.1459 226.41 97.6201 226.41 98.205V106.139C226.41 106.723 225.863 107.198 225.186 107.198Z" fill="#113A5D"/>
<path d="M178.188 120.733H168.104C167.428 120.733 166.88 120.258 166.88 119.673V111.739C166.88 111.154 167.428 110.679 168.104 110.679H178.188C178.863 110.679 179.411 111.154 179.411 111.739V119.673C179.411 120.258 178.863 120.733 178.188 120.733Z" fill="#113A5D"/>
<path d="M193.819 120.733H183.603C182.928 120.733 182.38 120.258 182.38 119.673V111.739C182.38 111.154 182.928 110.679 183.603 110.679H193.819C194.495 110.679 195.042 111.154 195.042 111.739V119.673C195.042 120.258 194.495 120.733 193.819 120.733Z" fill="#113A5D"/>
<path d="M209.885 120.862H199.934C199.257 120.862 198.71 120.388 198.71 119.803V111.869C198.71 111.283 199.257 110.808 199.934 110.808H209.885C210.559 110.808 211.107 111.283 211.107 111.869V119.803C211.107 120.388 210.559 120.862 209.885 120.862Z" fill="#113A5D"/>
<path d="M225.505 120.861H215.554C214.878 120.861 214.332 120.387 214.332 119.801V111.868C214.332 111.282 214.878 110.807 215.554 110.807H225.505C226.181 110.807 226.728 111.282 226.728 111.868V119.801C226.728 120.387 226.181 120.861 225.505 120.861Z" fill="#113A5D"/>
<path d="M178.188 134.395H168.104C167.428 134.395 166.88 133.92 166.88 133.335V125.401C166.88 124.816 167.428 124.341 168.104 124.341H178.188C178.863 124.341 179.411 124.816 179.411 125.401V133.335C179.411 133.92 178.863 134.395 178.188 134.395Z" fill="#113A5D"/>
<path d="M194.092 134.395H183.875C183.2 134.395 182.652 133.92 182.652 133.335V125.401C182.652 124.816 183.2 124.341 183.875 124.341H194.092C194.767 124.341 195.315 124.816 195.315 125.401V133.335C195.315 133.92 194.767 134.395 194.092 134.395Z" fill="#113A5D"/>
<path d="M209.885 134.524H199.933C199.257 134.524 198.709 134.05 198.709 133.464V125.53C198.709 124.945 199.257 124.471 199.933 124.471H209.885C210.559 124.471 211.107 124.945 211.107 125.53V133.464C211.107 134.05 210.559 134.524 209.885 134.524Z" fill="#113A5D"/>
<path d="M225.505 134.523H215.553C214.878 134.523 214.33 134.048 214.33 133.464V125.528C214.33 124.944 214.878 124.469 215.553 124.469H225.505C226.18 124.469 226.728 124.944 226.728 125.528V133.464C226.728 134.048 226.18 134.523 225.505 134.523Z" fill="#113A5D"/>
<path d="M176.621 93.8109H167.466C166.79 93.8109 166.243 93.3357 166.243 92.751V84.8173C166.243 84.2314 166.79 83.7574 167.466 83.7574H176.621C177.298 83.7574 177.845 84.2314 177.845 84.8173V92.751C177.845 93.3357 177.298 93.8109 176.621 93.8109Z" fill="white"/>
<path d="M167.464 83.9946C166.94 83.9946 166.513 84.364 166.513 84.8185V92.7524C166.513 93.2069 166.94 93.5763 167.464 93.5763H176.621C177.146 93.5763 177.572 93.2069 177.572 92.7524V84.8185C177.572 84.364 177.146 83.9946 176.621 83.9946H167.464ZM176.621 94.0476H167.464C166.641 94.0476 165.969 93.4666 165.969 92.7524V84.8185C165.969 84.1043 166.641 83.5233 167.464 83.5233H176.621C177.444 83.5233 178.116 84.1043 178.116 84.8185V92.7524C178.116 93.4666 177.444 94.0476 176.621 94.0476Z" fill="#113A5D"/>
<path d="M192.39 93.8109H183.233C182.558 93.8109 182.01 93.3357 182.01 92.751V84.8173C182.01 84.2314 182.558 83.7574 183.233 83.7574H192.39C193.065 83.7574 193.613 84.2314 193.613 84.8173V92.751C193.613 93.3357 193.065 93.8109 192.39 93.8109Z" fill="white"/>
<path d="M183.232 83.9946C182.708 83.9946 182.28 84.364 182.28 84.8185V92.7524C182.28 93.2069 182.708 93.5763 183.232 93.5763H192.388C192.912 93.5763 193.34 93.2069 193.34 92.7524V84.8185C193.34 84.364 192.912 83.9946 192.388 83.9946H183.232ZM192.388 94.0476H183.232C182.408 94.0476 181.737 93.4666 181.737 92.7524V84.8185C181.737 84.1043 182.408 83.5233 183.232 83.5233H192.388C193.212 83.5233 193.884 84.1043 193.884 84.8185V92.7524C193.884 93.4666 193.212 94.0476 192.388 94.0476Z" fill="#113A5D"/>
<path d="M208.455 93.9406H199.298C198.622 93.9406 198.074 93.4657 198.074 92.8803V84.9478C198.074 84.3623 198.622 83.8875 199.298 83.8875H208.455C209.129 83.8875 209.677 84.3623 209.677 84.9478V92.8803C209.677 93.4657 209.129 93.9406 208.455 93.9406Z" fill="white"/>
<path d="M199.298 84.1226C198.773 84.1226 198.347 84.4929 198.347 84.9471V92.881C198.347 93.3351 198.773 93.7043 199.298 93.7043H208.455C208.979 93.7043 209.406 93.3351 209.406 92.881V84.9471C209.406 84.4929 208.979 84.1226 208.455 84.1226H199.298ZM208.455 94.1753H199.298C198.473 94.1753 197.803 93.5947 197.803 92.881V84.9471C197.803 84.2323 198.473 83.6517 199.298 83.6517H208.455C209.279 83.6517 209.949 84.2323 209.949 84.9471V92.881C209.949 93.5947 209.279 94.1753 208.455 94.1753Z" fill="#113A5D"/>
<path d="M224.074 93.9401H214.918C214.242 93.9401 213.695 93.4658 213.695 92.8802V84.9461C213.695 84.3617 214.242 83.8862 214.918 83.8862H224.074C224.75 83.8862 225.297 84.3617 225.297 84.9461V92.8802C225.297 93.4658 224.75 93.9401 224.074 93.9401Z" fill="white"/>
<path d="M214.918 84.123C214.393 84.123 213.965 84.4923 213.965 84.9467V92.8808C213.965 93.3353 214.393 93.7045 214.918 93.7045H224.073C224.598 93.7045 225.025 93.3353 225.025 92.8808V84.9467C225.025 84.4923 224.598 84.123 224.073 84.123H214.918ZM224.073 94.1758H214.918C214.093 94.1758 213.422 93.5942 213.422 92.8808V84.9467C213.422 84.2321 214.093 83.6518 214.918 83.6518H224.073C224.898 83.6518 225.569 84.2321 225.569 84.9467V92.8808C225.569 93.5942 224.898 94.1758 224.073 94.1758Z" fill="#113A5D"/>
<path d="M176.621 107.473H167.464C166.789 107.473 166.241 106.999 166.241 106.414V98.4794C166.241 97.8942 166.789 97.4196 167.464 97.4196H176.621C177.297 97.4196 177.844 97.8942 177.844 98.4794V106.414C177.844 106.999 177.297 107.473 176.621 107.473Z" fill="white"/>
<path d="M167.465 97.6558C166.939 97.6558 166.513 98.025 166.513 98.4793V106.414C166.513 106.868 166.939 107.238 167.465 107.238H176.621C177.145 107.238 177.573 106.868 177.573 106.414V98.4793C177.573 98.025 177.145 97.6558 176.621 97.6558H167.465ZM176.621 107.708H167.465C166.64 107.708 165.969 107.128 165.969 106.414V98.4793C165.969 97.7654 166.64 97.1845 167.465 97.1845H176.621C177.445 97.1845 178.116 97.7654 178.116 98.4793V106.414C178.116 107.128 177.445 107.708 176.621 107.708Z" fill="#113A5D"/>
<path d="M192.389 107.473H183.233C182.557 107.473 182.01 106.999 182.01 106.414V98.4794C182.01 97.8942 182.557 97.4196 183.233 97.4196H192.389C193.064 97.4196 193.612 97.8942 193.612 98.4794V106.414C193.612 106.999 193.064 107.473 192.389 107.473Z" fill="white"/>
<path d="M183.233 97.6558C182.707 97.6558 182.281 98.025 182.281 98.4793V106.414C182.281 106.868 182.707 107.238 183.233 107.238H192.389C192.913 107.238 193.34 106.868 193.34 106.414V98.4793C193.34 98.025 192.913 97.6558 192.389 97.6558H183.233ZM192.389 107.708H183.233C182.407 107.708 181.737 107.128 181.737 106.414V98.4793C181.737 97.7654 182.407 97.1845 183.233 97.1845H192.389C193.213 97.1845 193.883 97.7654 193.883 98.4793V106.414C193.883 107.128 193.213 107.708 192.389 107.708Z" fill="#113A5D"/>
<path d="M208.455 107.601H199.299C198.622 107.601 198.075 107.128 198.075 106.542V98.6078C198.075 98.0227 198.622 97.549 199.299 97.549H208.455C209.13 97.549 209.678 98.0227 209.678 98.6078V106.542C209.678 107.128 209.13 107.601 208.455 107.601Z" fill="white"/>
<path d="M199.296 97.785C198.772 97.785 198.346 98.1544 198.346 98.6097V106.543C198.346 106.998 198.772 107.367 199.296 107.367H208.454C208.978 107.367 209.405 106.998 209.405 106.543V98.6097C209.405 98.1544 208.978 97.785 208.454 97.785H199.296ZM208.454 107.838H199.296C198.473 107.838 197.802 107.257 197.802 106.543V98.6097C197.802 97.8955 198.473 97.314 199.296 97.314H208.454C209.277 97.314 209.948 97.8955 209.948 98.6097V106.543C209.948 107.257 209.277 107.838 208.454 107.838Z" fill="#113A5D"/>
<path d="M224.074 107.602H214.917C214.241 107.602 213.694 107.127 213.694 106.542V98.6082C213.694 98.0226 214.241 97.5483 214.917 97.5483H224.074C224.75 97.5483 225.297 98.0226 225.297 98.6082V106.542C225.297 107.127 224.75 107.602 224.074 107.602Z" fill="white"/>
<path d="M214.917 97.7852C214.391 97.7852 213.965 98.1545 213.965 98.6089V106.543C213.965 106.997 214.391 107.367 214.917 107.367H224.073C224.597 107.367 225.023 106.997 225.023 106.543V98.6089C225.023 98.1545 224.597 97.7852 224.073 97.7852H214.917ZM224.073 107.838H214.917C214.091 107.838 213.421 107.256 213.421 106.543V98.6089C213.421 97.8955 214.091 97.314 214.917 97.314H224.073C224.897 97.314 225.567 97.8955 225.567 98.6089V106.543C225.567 107.256 224.897 107.838 224.073 107.838Z" fill="#113A5D"/>
<path d="M176.918 121.136H167.762C167.087 121.136 166.539 120.662 166.539 120.076V112.143C166.539 111.558 167.087 111.084 167.762 111.084H176.918C177.594 111.084 178.141 111.558 178.141 112.143V120.076C178.141 120.662 177.594 121.136 176.918 121.136Z" fill="white"/>
<path d="M167.762 111.319C167.238 111.319 166.81 111.689 166.81 112.143V120.076C166.81 120.531 167.238 120.901 167.762 120.901H176.918C177.443 120.901 177.87 120.531 177.87 120.076V112.143C177.87 111.689 177.443 111.319 176.918 111.319H167.762ZM176.918 121.371H167.762C166.938 121.371 166.266 120.79 166.266 120.076V112.143C166.266 111.428 166.938 110.847 167.762 110.847H176.918C177.742 110.847 178.413 111.428 178.413 112.143V120.076C178.413 120.79 177.742 121.371 176.918 121.371Z" fill="#113A5D"/>
<path d="M192.686 121.136H183.53C182.854 121.136 182.307 120.662 182.307 120.076V112.143C182.307 111.558 182.854 111.084 183.53 111.084H192.686C193.361 111.084 193.909 111.558 193.909 112.143V120.076C193.909 120.662 193.361 121.136 192.686 121.136Z" fill="white"/>
<path d="M183.53 111.319C183.005 111.319 182.578 111.689 182.578 112.143V120.076C182.578 120.531 183.005 120.901 183.53 120.901H192.686C193.21 120.901 193.637 120.531 193.637 120.076V112.143C193.637 111.689 193.21 111.319 192.686 111.319H183.53ZM192.686 121.371H183.53C182.706 121.371 182.035 120.79 182.035 120.076V112.143C182.035 111.428 182.706 110.847 183.53 110.847H192.686C193.51 110.847 194.181 111.428 194.181 112.143V120.076C194.181 120.79 193.51 121.371 192.686 121.371Z" fill="#113A5D"/>
<path d="M208.752 121.266H199.595C198.92 121.266 198.372 120.79 198.372 120.205V112.272C198.372 111.687 198.92 111.213 199.595 111.213H208.752C209.427 111.213 209.974 111.687 209.974 112.272V120.205C209.974 120.79 209.427 121.266 208.752 121.266Z" fill="white"/>
<path d="M199.596 111.447C199.071 111.447 198.644 111.818 198.644 112.272V120.205C198.644 120.659 199.071 121.03 199.596 121.03H208.752C209.277 121.03 209.704 120.659 209.704 120.205V112.272C209.704 111.818 209.277 111.447 208.752 111.447H199.596ZM208.752 121.501H199.596C198.772 121.501 198.1 120.919 198.1 120.205V112.272C198.1 111.557 198.772 110.976 199.596 110.976H208.752C209.576 110.976 210.247 111.557 210.247 112.272V120.205C210.247 120.919 209.576 121.501 208.752 121.501Z" fill="#113A5D"/>
<path d="M224.37 121.265H215.214C214.539 121.265 213.991 120.791 213.991 120.206V112.272C213.991 111.687 214.539 111.213 215.214 111.213H224.37C225.045 111.213 225.593 111.687 225.593 112.272V120.206C225.593 120.791 225.045 121.265 224.37 121.265Z" fill="white"/>
<path d="M215.215 111.447C214.69 111.447 214.263 111.818 214.263 112.272V120.205C214.263 120.659 214.69 121.03 215.215 121.03H224.37C224.895 121.03 225.322 120.659 225.322 120.205V112.272C225.322 111.818 224.895 111.447 224.37 111.447H215.215ZM224.37 121.5H215.215C214.391 121.5 213.72 120.92 213.72 120.205V112.272C213.72 111.557 214.391 110.976 215.215 110.976H224.37C225.195 110.976 225.865 111.557 225.865 112.272V120.205C225.865 120.92 225.195 121.5 224.37 121.5Z" fill="#113A5D"/>
<path d="M176.918 134.798H167.761C167.086 134.798 166.538 134.323 166.538 133.738V125.805C166.538 125.22 167.086 124.745 167.761 124.745H176.918C177.594 124.745 178.141 125.22 178.141 125.805V133.738C178.141 134.323 177.594 134.798 176.918 134.798Z" fill="white"/>
<path d="M167.761 124.98C167.237 124.98 166.81 125.351 166.81 125.805V133.738C166.81 134.193 167.237 134.563 167.761 134.563H176.918C177.443 134.563 177.87 134.193 177.87 133.738V125.805C177.87 125.351 177.443 124.98 176.918 124.98H167.761ZM176.918 135.034H167.761C166.937 135.034 166.266 134.452 166.266 133.738V125.805C166.266 125.091 166.937 124.509 167.761 124.509H176.918C177.742 124.509 178.413 125.091 178.413 125.805V133.738C178.413 134.452 177.742 135.034 176.918 135.034Z" fill="#113A5D"/>
<path d="M192.686 134.798H183.53C182.854 134.798 182.307 134.323 182.307 133.738V125.805C182.307 125.22 182.854 124.745 183.53 124.745H192.686C193.361 124.745 193.909 125.22 193.909 125.805V133.738C193.909 134.323 193.361 134.798 192.686 134.798Z" fill="white"/>
<path d="M183.53 124.98C183.006 124.98 182.578 125.351 182.578 125.805V133.738C182.578 134.193 183.006 134.563 183.53 134.563H192.686C193.21 134.563 193.638 134.193 193.638 133.738V125.805C193.638 125.351 193.21 124.98 192.686 124.98H183.53ZM192.686 135.034H183.53C182.706 135.034 182.034 134.452 182.034 133.738V125.805C182.034 125.091 182.706 124.509 183.53 124.509H192.686C193.51 124.509 194.18 125.091 194.18 125.805V133.738C194.18 134.452 193.51 135.034 192.686 135.034Z" fill="#113A5D"/>
<path d="M208.752 134.927H199.594C198.919 134.927 198.37 134.453 198.37 133.867V125.935C198.37 125.349 198.919 124.874 199.594 124.874H208.752C209.427 124.874 209.974 125.349 209.974 125.935V133.867C209.974 134.453 209.427 134.927 208.752 134.927Z" fill="white"/>
<path d="M199.595 125.109C199.07 125.109 198.644 125.479 198.644 125.934V133.867C198.644 134.322 199.07 134.691 199.595 134.691H208.752C209.277 134.691 209.702 134.322 209.702 133.867V125.934C209.702 125.479 209.277 125.109 208.752 125.109H199.595ZM208.752 135.163H199.595C198.771 135.163 198.1 134.582 198.1 133.867V125.934C198.1 125.22 198.771 124.639 199.595 124.639H208.752C209.576 124.639 210.247 125.22 210.247 125.934V133.867C210.247 134.582 209.576 135.163 208.752 135.163Z" fill="#113A5D"/>
<path d="M224.37 134.927H215.213C214.538 134.927 213.99 134.452 213.99 133.867V125.934C213.99 125.349 214.538 124.874 215.213 124.874H224.37C225.045 124.874 225.593 125.349 225.593 125.934V133.867C225.593 134.452 225.045 134.927 224.37 134.927Z" fill="white"/>
<path d="M215.214 125.109C214.69 125.109 214.263 125.48 214.263 125.933V133.867C214.263 134.321 214.69 134.692 215.214 134.692H224.37C224.895 134.692 225.322 134.321 225.322 133.867V125.933C225.322 125.48 224.895 125.109 224.37 125.109H215.214ZM224.37 135.163H215.214C214.389 135.163 213.719 134.58 213.719 133.867V125.933C213.719 125.22 214.389 124.638 215.214 124.638H224.37C225.195 124.638 225.865 125.22 225.865 125.933V133.867C225.865 134.58 225.195 135.163 224.37 135.163Z" fill="#113A5D"/>
<path d="M204.635 144.855H189.515C189.089 144.855 188.744 144.556 188.744 144.188V138.841C188.744 138.473 189.089 138.174 189.515 138.174H204.635C205.061 138.174 205.405 138.473 205.405 138.841V144.188C205.405 144.556 205.061 144.855 204.635 144.855Z" fill="white"/>
<path d="M189.517 138.409C189.242 138.409 189.019 138.603 189.019 138.841V144.186C189.019 144.425 189.242 144.619 189.517 144.619H204.637C204.912 144.619 205.135 144.425 205.135 144.186V138.841C205.135 138.603 204.912 138.409 204.637 138.409H189.517ZM204.637 145.089H189.517C188.942 145.089 188.475 144.685 188.475 144.186V138.841C188.475 138.343 188.942 137.938 189.517 137.938H204.637C205.211 137.938 205.679 138.343 205.679 138.841V144.186C205.679 144.685 205.211 145.089 204.637 145.089Z" fill="#113A5D"/>
<path d="M154.865 36.1369C153.063 36.1369 151.595 37.4087 151.595 38.9702V183.338C151.595 184.9 153.063 186.171 154.865 186.171H237.028C238.832 186.171 240.298 184.9 240.298 183.338V38.9702C240.298 37.4087 238.832 36.1369 237.028 36.1369H154.865ZM237.028 186.642H154.865C152.763 186.642 151.051 185.159 151.051 183.338V38.9702C151.051 37.1487 152.763 35.6664 154.865 35.6664H237.028C239.132 35.6664 240.843 37.1487 240.843 38.9702V183.338C240.843 185.159 239.132 186.642 237.028 186.642Z" fill="#113A5D"/>
<path d="M207.998 187.956H186.937C186.422 187.956 186.007 187.594 186.007 187.149V158.693C186.007 157.043 187.549 155.706 189.452 155.706H206.571C207.948 155.706 209.066 156.674 209.066 157.868V187.031C209.066 187.542 208.588 187.956 207.998 187.956Z" fill="white"/>
<path d="M189.453 155.942C187.703 155.942 186.279 157.175 186.279 158.692V187.149C186.279 187.464 186.574 187.719 186.937 187.719H208C208.438 187.719 208.793 187.411 208.793 187.031V157.867C208.793 156.806 207.797 155.942 206.572 155.942H189.453ZM208 188.191H186.937C186.275 188.191 185.735 187.723 185.735 187.149V158.692C185.735 156.915 187.404 155.47 189.453 155.47H206.572C208.096 155.47 209.338 156.546 209.338 157.867V187.031C209.338 187.67 208.737 188.191 208 188.191Z" fill="#113A5D"/>
<path d="M200.633 170.021H193.925C193.074 170.021 192.384 169.423 192.384 168.687V162.872C192.384 162.136 193.074 161.538 193.925 161.538H200.633C201.486 161.538 202.174 162.136 202.174 162.872V168.687C202.174 169.423 201.486 170.021 200.633 170.021Z" fill="#C4FFDD"/>
<path d="M226.173 78.693H166.289C165.163 78.693 164.25 77.9027 164.25 76.9264V46.4341C164.25 45.4578 165.163 44.6675 166.289 44.6675H226.173C227.3 44.6675 228.214 45.4578 228.214 46.4341V76.9264C228.214 77.9027 227.3 78.693 226.173 78.693Z" fill="white"/>
<path d="M166.289 44.9033C165.314 44.9033 164.522 45.5898 164.522 46.4339V76.9261C164.522 77.7702 165.314 78.458 166.289 78.458H226.174C227.15 78.458 227.941 77.7702 227.941 76.9261V46.4339C227.941 45.5898 227.15 44.9033 226.174 44.9033H166.289ZM226.174 78.9283H166.289C165.015 78.9283 163.979 78.0298 163.979 76.9261V46.4339C163.979 45.3301 165.015 44.4316 166.289 44.4316H226.174C227.45 44.4316 228.485 45.3301 228.485 46.4339V76.9261C228.485 78.0298 227.45 78.9283 226.174 78.9283Z" fill="#113A5D"/>
<path d="M181.912 62.9605C181.912 64.3259 180.635 65.4342 179.059 65.4342C177.483 65.4342 176.205 64.3259 176.205 62.9605C176.205 61.595 177.483 60.488 179.059 60.488C180.635 60.488 181.912 61.595 181.912 62.9605Z" fill="#C4FFDD"/>
<path d="M190.882 62.8427C190.882 64.2089 189.605 65.3153 188.028 65.3153C186.451 65.3153 185.173 64.2089 185.173 62.8427C185.173 61.4777 186.451 60.3701 188.028 60.3701C189.605 60.3701 190.882 61.4777 190.882 62.8427Z" fill="#C4FFDD"/>
<path d="M199.987 62.725C199.987 64.0908 198.71 65.1978 197.133 65.1978C195.557 65.1978 194.28 64.0908 194.28 62.725C194.28 61.3592 195.557 60.2522 197.133 60.2522C198.71 60.2522 199.987 61.3592 199.987 62.725Z" fill="#C4FFDD"/>
<path d="M208.957 62.6072C208.957 63.9724 207.679 65.0801 206.103 65.0801C204.526 65.0801 203.249 63.9724 203.249 62.6072C203.249 61.2419 204.526 60.1343 206.103 60.1343C207.679 60.1343 208.957 61.2419 208.957 62.6072Z" fill="#C4FFDD"/>
<path d="M217.79 62.3715C217.79 63.7371 216.514 64.8435 214.936 64.8435C213.361 64.8435 212.083 63.7371 212.083 62.3715C212.083 61.006 213.361 59.8983 214.936 59.8983C216.514 59.8983 217.79 61.006 217.79 62.3715Z" fill="#C4FFDD"/>
<path d="M164.64 218.708C164.505 218.708 164.387 218.621 164.37 218.502C164.351 218.373 164.458 218.255 164.605 218.239C188.326 215.672 213.782 198.804 214.036 198.634C214.155 198.555 214.325 198.574 214.417 198.677C214.508 198.78 214.486 198.928 214.369 199.008C214.113 199.178 188.538 216.123 164.674 218.706C164.662 218.707 164.651 218.708 164.64 218.708Z" fill="#113A5D"/>
<path d="M162.595 222.382C162.45 222.382 162.331 222.284 162.323 222.158C162.317 222.028 162.433 221.917 162.582 221.912C181.12 221.17 205.181 208.172 205.422 208.04C205.549 207.971 205.717 208.005 205.797 208.114C205.877 208.225 205.839 208.369 205.712 208.439C205.469 208.571 181.287 221.635 162.609 222.382C162.604 222.382 162.6 222.382 162.595 222.382Z" fill="#113A5D"/>
<path d="M159.529 220.178C160.08 220.645 160.965 220.635 161.503 220.159C162.041 219.682 162.031 218.915 161.482 218.449C160.931 217.982 160.046 217.99 159.508 218.467C158.97 218.944 158.978 219.712 159.529 220.178ZM160.505 220.993C160.015 220.993 159.526 220.833 159.149 220.514C158.384 219.866 158.371 218.8 159.118 218.138C159.866 217.475 161.097 217.464 161.862 218.111C162.627 218.761 162.639 219.827 161.891 220.488C161.512 220.825 161.008 220.993 160.505 220.993Z" fill="#113A5D"/>
<path d="M217.153 193.85L219.129 197.322L222.02 193.473L217.153 193.85ZM219.096 198.033C219.092 198.033 219.085 198.033 219.079 198.033C218.982 198.028 218.895 197.978 218.851 197.902L216.49 193.75C216.45 193.68 216.453 193.598 216.497 193.531C216.541 193.463 216.62 193.418 216.71 193.412L222.529 192.961C222.63 192.952 222.732 192.997 222.784 193.074C222.839 193.151 222.836 193.248 222.78 193.324L219.323 197.926C219.274 197.994 219.187 198.033 219.096 198.033Z" fill="#113A5D"/>
<path d="M251.634 78.7117C251.564 78.7117 251.494 78.6888 251.441 78.6418C251.334 78.5504 251.334 78.4012 251.441 78.3098L252.389 77.4871C252.495 77.3957 252.667 77.3957 252.774 77.4871C252.88 77.5798 252.88 77.729 252.774 77.8205L251.826 78.6418C251.773 78.6888 251.704 78.7117 251.634 78.7117Z" fill="#113A5D"/>
<path d="M255.216 75.6082C255.146 75.6082 255.076 75.585 255.023 75.5386C254.917 75.4459 254.917 75.2973 255.023 75.206L255.972 74.3839C256.079 74.2926 256.25 74.2926 256.356 74.3839C256.463 74.4753 256.463 74.6252 256.356 74.7166L255.408 75.5386C255.355 75.585 255.286 75.6082 255.216 75.6082Z" fill="#113A5D"/>
<path d="M256.164 78.7109C256.094 78.7109 256.025 78.6891 255.972 78.6428L255.023 77.8207C254.917 77.7294 254.917 77.5794 255.023 77.4881C255.128 77.3954 255.301 77.3954 255.408 77.4881L256.356 78.3088C256.463 78.4015 256.463 78.5501 256.356 78.6428C256.304 78.6891 256.233 78.7109 256.164 78.7109Z" fill="#113A5D"/>
<path d="M252.582 75.6079C252.512 75.6079 252.442 75.5837 252.389 75.538L251.441 74.7167C251.334 74.6253 251.334 74.4761 251.441 74.3833C251.547 74.2919 251.719 74.2919 251.826 74.3833L252.774 75.206C252.88 75.2974 252.88 75.4466 252.774 75.538C252.721 75.5837 252.651 75.6079 252.582 75.6079Z" fill="#113A5D"/>
<path d="M56.155 113.423C56.1173 113.423 56.0791 113.417 56.0427 113.402C55.906 113.349 55.8458 113.209 55.9079 113.09L56.4637 112.033C56.5258 111.915 56.6877 111.862 56.8236 111.917C56.9603 111.97 57.0206 112.11 56.9584 112.228L56.4026 113.286C56.357 113.372 56.2582 113.423 56.155 113.423Z" fill="#113A5D"/>
<path d="M58.2551 109.429C58.2174 109.429 58.1792 109.423 58.1429 109.408C58.0061 109.354 57.9459 109.214 58.0079 109.096L58.5638 108.038C58.6262 107.92 58.7876 107.868 58.9237 107.921C59.0605 107.976 59.1207 108.115 59.0586 108.234L58.5027 109.291C58.4571 109.378 58.3583 109.429 58.2551 109.429Z" fill="#113A5D"/>
<path d="M60.3984 112.049C60.3607 112.049 60.3225 112.041 60.2861 112.027L59.0657 111.545C58.929 111.491 58.8687 111.352 58.9308 111.234C58.9932 111.115 59.1548 111.063 59.2908 111.117L60.5112 111.599C60.648 111.653 60.7081 111.792 60.646 111.91C60.6004 111.996 60.5017 112.049 60.3984 112.049Z" fill="#113A5D"/>
<path d="M55.7879 110.229C55.7502 110.229 55.7121 110.222 55.6756 110.208L54.4552 109.726C54.3185 109.672 54.2582 109.532 54.3204 109.414C54.3827 109.296 54.5443 109.243 54.6803 109.297L55.9007 109.779C56.0375 109.832 56.0976 109.973 56.0355 110.091C55.99 110.177 55.8912 110.229 55.7879 110.229Z" fill="#113A5D"/>
<path d="M68.3629 123.411C67.5844 123.411 66.9509 123.96 66.9509 124.635C66.9509 125.309 67.5844 125.858 68.3629 125.858C69.1415 125.858 69.775 125.309 69.775 124.635C69.775 123.96 69.1415 123.411 68.3629 123.411ZM68.3629 126.33C67.2845 126.33 66.4072 125.569 66.4072 124.635C66.4072 123.7 67.2845 122.941 68.3629 122.941C69.4414 122.941 70.3185 123.7 70.3185 124.635C70.3185 125.569 69.4414 126.33 68.3629 126.33Z" fill="#113A5D"/>
<path d="M105.023 179.962C99.8663 186.153 95.929 196.738 92.9247 209.046C92.7268 209.857 90.4865 224.148 91.399 224.395C110.425 229.577 111.784 229.577 124.559 230.284C127.781 230.461 141.411 230.284 150.859 230.052C151.679 230.031 152.384 229.572 152.339 228.862C151.167 210.241 149.127 187.79 149.127 187.79L105.023 179.962Z" fill="white"/>
<path d="M152.339 229.097C152.195 229.097 152.076 229 152.067 228.875C150.964 211.336 149.066 190.136 148.872 187.985L105.141 180.223C100.515 185.85 96.4942 195.562 93.1906 209.095C92.9045 210.267 90.9804 223.21 91.5479 224.199C91.6471 224.255 91.6957 224.364 91.6583 224.467C91.6128 224.59 91.4611 224.659 91.3174 224.621C91.0008 224.535 90.5225 224.404 91.4752 216.906C91.9351 213.286 92.5507 209.44 92.6587 208.997C96.0023 195.299 100.088 185.485 104.803 179.824C104.865 179.749 104.973 179.713 105.078 179.732L149.181 187.559C149.3 187.58 149.388 187.666 149.397 187.771C149.418 187.996 151.452 210.438 152.61 228.849C152.619 228.979 152.503 229.09 152.353 229.097C152.348 229.097 152.343 229.097 152.339 229.097Z" fill="#113A5D"/>
<path d="M160.115 133.646C160.115 133.646 172.037 140.599 177.609 139.289C185.45 137.447 188.902 120.139 189.24 118.603C189.578 117.066 191.088 109.275 192.655 106.369C194.128 103.638 195.024 100.841 195.496 99.1213C195.782 98.0854 196.597 97.5847 197.403 97.6904C198.114 97.7839 198.584 98.2656 198.184 99.8111C197.724 101.599 197.312 103.396 196.936 104.925C196.817 105.407 196.592 105.861 196.982 105.519C197.893 104.723 199.363 103.837 200.85 103.406C201.501 103.217 206.699 98.3368 208.081 98.9354C209.318 99.4706 202.272 106.159 202.554 106.959C203.251 108.929 202.852 111.563 201.749 113.942C199.868 117.989 196.864 117.535 196.345 119.441C195.825 121.346 193.117 145.522 190.948 149.948C187.83 156.312 157.93 151.667 157.93 151.667L160.115 133.646Z" fill="white"/>
<path d="M158.227 151.473C161.108 151.898 187.849 155.674 190.698 149.856C192.226 146.738 194.054 133.517 195.146 125.619C195.599 122.328 195.929 119.949 196.081 119.385C196.326 118.488 197.066 118.062 197.921 117.569C199.046 116.923 200.447 116.116 201.497 113.852C202.638 111.392 202.937 108.841 202.294 107.025C202.146 106.607 202.864 105.719 204.802 103.469C206.064 102.005 208.175 99.555 207.95 99.1357C207.169 98.8029 204.13 101.219 202.668 102.38C201.644 103.194 201.18 103.558 200.936 103.628C199.379 104.08 197.938 105.018 197.176 105.684C197.077 105.771 196.873 105.951 196.649 105.84C196.419 105.727 196.483 105.512 196.582 105.189C196.611 105.092 196.645 104.984 196.672 104.875C196.81 104.31 196.955 103.709 197.104 103.084C197.363 102.004 197.629 100.887 197.921 99.7591C198.119 98.9904 198.108 98.4569 197.885 98.1751C197.774 98.0354 197.61 97.9555 197.364 97.9222C196.637 97.8269 195.994 98.3304 195.763 99.1756C195.253 101.026 194.344 103.792 192.902 106.469C191.528 109.019 190.174 115.471 189.665 117.9C189.6 118.218 189.545 118.472 189.508 118.647L189.464 118.848C188.251 124.515 184.674 137.873 177.682 139.517C177.179 139.634 176.626 139.689 176.038 139.689C170.642 139.689 162.242 135.128 160.34 134.056L158.227 151.473ZM177.588 153.546C168.659 153.546 158.597 152.01 157.883 151.898C157.742 151.877 157.645 151.766 157.66 151.641L159.845 133.62C159.856 133.538 159.915 133.467 160 133.432C160.087 133.397 160.188 133.404 160.268 133.451C160.387 133.519 172.148 140.328 177.54 139.062C184.234 137.488 187.735 124.342 188.931 118.762L188.973 118.559C189.011 118.386 189.064 118.132 189.13 117.814C189.644 115.37 191.006 108.875 192.409 106.269C193.832 103.629 194.731 100.895 195.234 99.0669C195.536 97.9688 196.425 97.3233 197.445 97.4575C197.839 97.5085 198.137 97.6616 198.335 97.9089C198.648 98.3082 198.688 98.9471 198.451 99.8622C198.16 100.987 197.894 102.102 197.637 103.18C197.487 103.805 197.342 104.408 197.202 104.973C197.198 104.991 197.195 105.008 197.19 105.026C198.061 104.352 199.354 103.591 200.764 103.182C200.929 103.123 201.657 102.544 202.3 102.033C204.913 99.9554 207.161 98.2727 208.203 98.7242C208.348 98.7863 208.443 98.8928 208.481 99.0326C208.665 99.708 207.38 101.265 205.238 103.751C204.212 104.942 202.805 106.575 202.818 106.903C203.492 108.802 203.189 111.472 202.001 114.029C200.887 116.427 199.346 117.314 198.222 117.962C197.4 118.434 196.806 118.777 196.611 119.494C196.464 120.032 196.12 122.521 195.685 125.674C194.589 133.598 192.757 146.86 191.199 150.04C189.873 152.747 184.025 153.546 177.588 153.546Z" fill="#113A5D"/>
<path d="M109.941 124.239C124.312 118.684 152.086 119.835 171.57 137.953C173.862 140.083 167.244 156.152 161.342 155.047C156.127 154.07 151.876 152.939 151.478 155.556C150.928 159.17 154.669 188.135 149.222 196.305C139.49 210.899 110.464 208.72 95.5284 201.605C91.5849 199.727 95.7261 194.557 98.625 177.693C100.784 165.132 102.043 154.722 99.3691 158.738C98.057 160.709 84.3255 148.858 85.7588 145.319C88.902 137.557 94.4313 130.234 109.941 124.239Z" fill="#113A5D"/>
<path d="M186.091 120.15L197.6 121.502C198.381 144.489 195.855 161.004 161.342 155.047L165.999 133.671C178.868 141.453 183.659 131.988 186.091 120.15Z" fill="#113A5D"/>
<path d="M88.9465 139.587C72.1706 160.714 81.8141 203.915 104.552 204.237L103.967 185.561C102.064 183.474 101.103 162.86 104.698 156.32L88.9465 139.587Z" fill="#113A5D"/>
<path d="M94.5308 201.177C94.5067 201.177 94.482 201.174 94.4576 201.167C94.3129 201.133 94.2286 201.003 94.2688 200.878C97.659 190.343 99.5475 173.48 100.184 161.211C100.191 161.081 100.316 160.98 100.468 160.986C100.618 160.992 100.734 161.102 100.727 161.232C100.089 173.527 98.1948 190.432 94.7922 201.005C94.7588 201.109 94.6498 201.177 94.5308 201.177Z" fill="white"/>
<path d="M118.646 122.336C118.801 121.842 124.453 117.782 122.972 108.654C122.972 108.654 115.326 99.6482 117.651 95.6757C119.976 91.7032 119.78 85.8319 127.591 85.7832C135.399 85.7346 139.993 88.7703 141.794 92.7174C143.595 96.6644 144.07 100.619 144.237 102.916C144.359 104.617 144.096 108.417 143.95 110.278C143.901 110.919 143.392 111.461 142.677 111.634L140.317 112.207C139.547 112.394 139.021 113.008 139.039 113.7L139.126 117.354C139.496 126.29 136.156 125.048 133.708 125.531C127.457 126.763 117.827 124.956 118.646 122.336Z" fill="white"/>
<path d="M118.906 122.406C118.793 122.777 118.934 123.135 119.336 123.498C121.38 125.343 128.736 126.27 133.647 125.301C134.022 125.228 134.417 125.192 134.799 125.158C136.942 124.966 139.161 124.769 138.855 117.362L138.766 113.705C138.748 112.905 139.355 112.197 140.243 111.981L142.604 111.407C143.204 111.261 143.636 110.8 143.68 110.262C143.837 108.236 144.084 104.587 143.965 102.932C143.69 99.1325 142.873 95.7252 141.54 92.8041C139.553 88.4489 134.476 85.9807 127.592 86.0184C121.857 86.0538 120.614 89.2617 119.297 92.6568C118.887 93.7154 118.462 94.8105 117.893 95.7828C115.67 99.582 123.116 108.426 123.19 108.515C123.217 108.546 123.235 108.582 123.241 108.621C124.517 116.482 120.555 120.649 119.253 122.019C119.098 122.181 118.938 122.35 118.906 122.406ZM129.172 126.167C124.917 126.167 120.534 125.259 118.944 123.824C118.411 123.343 118.217 122.807 118.384 122.274C118.422 122.152 118.551 122.016 118.834 121.719C120.095 120.393 123.926 116.364 122.712 108.745C122.044 107.949 115.1 99.5145 117.409 95.5691C117.96 94.6278 118.378 93.5493 118.782 92.5073C120.101 89.1045 121.466 85.5854 127.588 85.5477C134.699 85.5057 139.972 88.0857 142.047 92.6313C143.4 95.5979 144.228 99.0538 144.507 102.902C144.629 104.584 144.381 108.256 144.222 110.294C144.163 111.032 143.572 111.661 142.749 111.86L140.39 112.434C139.74 112.592 139.296 113.111 139.31 113.695L139.399 117.35C139.722 125.192 137.135 125.424 134.854 125.626C134.472 125.661 134.11 125.693 133.768 125.76C132.358 126.038 130.773 126.167 129.172 126.167Z" fill="#113A5D"/>
<path d="M139.143 98.8189C140.088 98.4754 140.705 97.6798 140.726 96.7914C140.75 95.7268 140.002 93.2815 141.793 92.7171C146.608 91.2014 144.736 86.1871 141.873 84.3326C139.008 82.4768 127.784 79.3973 122.107 82.0716C122.107 82.0716 119.861 83.7029 120.366 85.3171C120.366 85.3171 115.848 85.4293 114.791 88.3302C113.734 91.2311 111.956 101.882 123.222 109.941C123.222 109.941 126.13 110.237 129.364 109.495C131.245 109.065 132.623 107.666 132.884 105.996C133.286 103.434 134.485 99.5103 135.303 98.3461C135.303 98.3461 134.781 96.5316 135.956 96.0645C136.72 95.7623 137.649 96.5281 138.061 97.1612L139.143 98.8189Z" fill="#113A5D"/>
<path d="M143.639 111.2C143.625 111.2 143.61 111.199 143.594 111.196C143.552 111.19 139.361 110.54 138.382 106.591C138.35 106.465 138.444 106.339 138.591 106.312C138.737 106.284 138.882 106.366 138.914 106.492C139.817 110.131 143.646 110.726 143.684 110.731C143.832 110.753 143.932 110.874 143.907 111.003C143.885 111.118 143.77 111.2 143.639 111.2Z" fill="#113A5D"/>
<path d="M138.339 102.848C138.337 102.848 138.335 102.848 138.333 102.848C138.19 102.845 134.802 102.718 133.901 97.5228C133.879 97.3951 133.982 97.2749 134.13 97.2557C134.281 97.2355 134.417 97.3249 134.439 97.4537C135.267 102.232 138.222 102.374 138.347 102.377C138.497 102.381 138.614 102.49 138.61 102.618C138.606 102.746 138.486 102.848 138.339 102.848Z" fill="#113A5D"/>
<path d="M178.224 205.684C175.497 206.331 172.682 204.939 171.935 202.575C171.188 200.212 172.793 197.771 175.52 197.123C178.246 196.476 181.061 197.868 181.808 200.232C182.554 202.595 180.95 205.036 178.224 205.684ZM187.054 199.88L186.529 198.217L184.36 198.303C184.159 197.936 183.925 197.589 183.662 197.265L184.811 195.67L183.397 194.458L181.567 195.472C181.187 195.245 180.785 195.047 180.365 194.878L180.44 192.996L178.517 192.558L177.52 194.228C177.063 194.197 176.6 194.2 176.135 194.236L175.114 192.574L173.196 193.03L173.296 194.911C172.873 195.085 172.473 195.288 172.098 195.515L170.259 194.519L168.86 195.745L170.03 197.332C169.769 197.661 169.54 198.01 169.345 198.373L167.175 198.308L166.671 199.977L168.596 200.842C168.56 201.238 168.564 201.639 168.606 202.043L166.689 202.927L167.215 204.59L169.383 204.504C169.585 204.87 169.818 205.218 170.081 205.542L168.933 207.137L170.346 208.349L172.176 207.335C172.556 207.562 172.958 207.76 173.377 207.929L173.302 209.811L175.226 210.249L176.223 208.579C176.68 208.61 177.143 208.607 177.608 208.571L178.629 210.233L180.547 209.777L180.447 207.896C180.87 207.722 181.27 207.519 181.645 207.292L183.484 208.288L184.883 207.062L183.713 205.475C183.973 205.145 184.203 204.797 184.398 204.434L186.568 204.499L187.073 202.83L185.147 201.965C185.183 201.569 185.179 201.168 185.137 200.764L187.054 199.88Z" fill="#C4FFDD"/>
<path d="M111.833 70.2056C111.833 78.8615 103.734 85.8789 93.7437 85.8789C83.7535 85.8789 75.6547 78.8615 75.6547 70.2056C75.6547 61.5497 83.7535 54.5324 93.7437 54.5324C103.734 54.5324 111.833 61.5497 111.833 70.2056Z" fill="#113A5D"/>
<path d="M97.9356 67.9957L97.8441 63.024C97.8022 61.4169 96.3323 60.1018 94.4796 60.0291C92.4377 59.9475 90.7432 61.3939 90.7904 63.1643L90.8312 64.7076C90.8452 65.2458 90.3322 65.682 89.7114 65.6604C89.1405 65.6399 88.6873 65.2369 88.679 64.742L88.6545 63.2778C88.5779 60.4335 91.2058 58.0981 94.5944 58.218L94.5943 58.2205C97.3934 58.3187 99.9546 60.4526 100.025 63.0507L100.097 68.0723L97.9356 67.9957Z" fill="white"/>
<path d="M98.2032 67.7702L99.8216 67.8264L99.7527 63.0534C99.6884 60.6586 97.3208 58.5522 94.5828 58.4552C94.5699 58.4552 94.5572 58.454 94.5444 58.4514C93.0204 58.4054 91.6023 58.8778 90.5423 59.7816C89.4644 60.6994 88.8903 61.9389 88.9264 63.2716L88.9508 64.7397C88.9569 65.1086 89.2959 65.4099 89.7227 65.4252C89.9486 65.4328 90.1588 65.3626 90.3188 65.226C90.4789 65.0894 90.5644 64.9082 90.5594 64.7129L90.5187 63.1708C90.4946 62.2581 90.9134 61.3683 91.6682 60.7288C92.43 60.0841 93.4288 59.7509 94.4921 59.7931C96.4788 59.8722 98.0706 61.2892 98.1161 63.0189L98.2032 67.7702ZM100.097 68.3076C100.093 68.3076 100.09 68.3076 100.086 68.3076L97.9244 68.231C97.7807 68.2259 97.6662 68.1251 97.6638 68L97.5725 63.0278C97.5334 61.547 96.1697 60.3318 94.4672 60.2641C93.5586 60.2284 92.7007 60.513 92.048 61.0658C91.4006 61.6134 91.0413 62.3768 91.0622 63.1593L91.1029 64.7026C91.111 65.0231 90.9644 65.3371 90.6996 65.5618C90.435 65.7877 90.0676 65.909 89.7003 65.8962C88.9855 65.8707 88.4176 65.3652 88.4072 64.7461L88.3827 63.2806C88.3432 61.8189 88.975 60.4556 90.1613 59.4458C91.3389 58.4425 92.9179 57.9229 94.6055 57.9829C94.6189 57.9829 94.6326 57.9842 94.6458 57.9867C97.6426 58.1118 100.226 60.4211 100.296 63.0457L100.369 68.0689C100.37 68.134 100.34 68.1966 100.286 68.2412C100.235 68.2846 100.168 68.3076 100.097 68.3076Z" fill="#113A5D"/>
<path d="M95.537 81.6669L93.1162 81.7498C89.7643 81.6767 86.8012 78.2059 87.1193 74.1262L87.6279 67.6L101.875 67.5013C103.139 67.4965 104.199 68.4731 104.111 69.5667L103.672 75.0786C103.383 78.7868 99.8268 81.6669 95.537 81.6669Z" fill="white"/>
<path d="M93.2027 81.5654C88.4833 81.5654 84.7497 78.1043 85.068 74.0238L85.5616 67.6976H100.625C101.317 67.6976 101.866 68.2062 101.819 68.8047L101.337 74.9777C101.048 78.6858 97.4923 81.5654 93.2027 81.5654Z" fill="white"/>
<path d="M85.8157 67.9331L85.3394 74.0402C85.1906 75.9477 85.9382 77.7674 87.4451 79.1633C88.9517 80.5603 90.9965 81.3289 93.2029 81.3289C97.3337 81.3289 100.788 78.5323 101.066 74.9611L101.548 68.7881C101.566 68.564 101.478 68.3508 101.301 68.1876C101.124 68.0232 100.884 67.9331 100.625 67.9331H85.8157ZM93.2029 81.8003C90.8442 81.8003 88.6583 80.9781 87.0477 79.4848C85.4374 77.9915 84.638 76.0476 84.797 74.0086L85.2904 67.6809C85.3002 67.5579 85.4186 67.4617 85.5616 67.4617H100.625C101.03 67.4617 101.421 67.6091 101.698 67.8648C101.975 68.1218 102.118 68.4702 102.09 68.8198L101.609 74.9927C101.311 78.81 97.6187 81.8003 93.2029 81.8003Z" fill="#113A5D"/>
<path d="M93.016 77.5616C92.6315 77.5616 92.327 77.28 92.3513 76.9471L92.7131 72.0294C92.7355 71.7251 93.0265 71.4888 93.3778 71.4888C93.7623 71.4888 94.0668 71.7705 94.0425 72.1022L93.6805 77.0211C93.6584 77.3254 93.3673 77.5616 93.016 77.5616Z" fill="#113A5D"/>
<path d="M95.7008 72.4774C95.7008 73.6513 94.6033 74.6019 93.249 74.6019C91.8947 74.6019 90.7969 73.6513 90.7969 72.4774C90.7969 71.3047 91.8947 70.3529 93.249 70.3529C94.6033 70.3529 95.7008 71.3047 95.7008 72.4774Z" fill="#113A5D"/>
</svg>
