<svg width="18" height="19" viewBox="0 0 18 19" fill="none" xmlns="http://www.w3.org/2000/svg">
<path d="M1.16565 7.12817C1.16565 4.29975 1.16565 2.88553 2.04433 2.00685C2.92301 1.12817 4.33722 1.12817 7.16565 1.12817H11.1656C13.9941 1.12817 15.4083 1.12817 16.287 2.00685C17.1656 2.88553 17.1656 4.29975 17.1656 7.12817V13.9558C17.1656 16.6391 17.1656 17.9807 16.3214 18.3911C15.4771 18.8014 14.4221 17.9725 12.3122 16.3147L11.6369 15.7842C10.4506 14.852 9.85738 14.386 9.16565 14.386C8.47392 14.386 7.88074 14.852 6.69436 15.7842L6.01911 16.3147C3.9092 17.9725 2.85424 18.8014 2.00994 18.3911C1.16565 17.9807 1.16565 16.6391 1.16565 13.9558V7.12817Z" stroke="#113A5D"/>
</svg>
