<svg width="22" height="22" viewBox="0 0 22 22" fill="none" xmlns="http://www.w3.org/2000/svg">
<path d="M18.4167 1H2.83333C1.82081 1 1 1.82081 1 2.83333V18.4167C1 19.4292 1.82081 20.25 2.83333 20.25H18.4167C19.4292 20.25 20.25 19.4292 20.25 18.4167V2.83333C20.25 1.82081 19.4292 1 18.4167 1Z" stroke="white" stroke-width="2"/>
<path d="M7.41667 9.70833C8.68232 9.70833 9.70833 8.68232 9.70833 7.41667C9.70833 6.15101 8.68232 5.125 7.41667 5.125C6.15101 5.125 5.125 6.15101 5.125 7.41667C5.125 8.68232 6.15101 9.70833 7.41667 9.70833Z" stroke="white" stroke-width="2"/>
<path d="M7.64587 16.5835L11.8371 11.3944C12.1723 10.9793 12.7899 10.9372 13.1784 11.3029L20.25 17.9585" stroke="white" stroke-width="2"/>
<path d="M1.6875 19.7916L5.10951 15.6091C5.47416 15.1635 6.15455 15.1604 6.52319 15.6028L10.3958 20.2499" stroke="white" stroke-width="2"/>
</svg>
