<svg width="147" height="24" viewBox="0 0 147 24" fill="none" xmlns="http://www.w3.org/2000/svg">
<path d="M13.7761 23L15.8461 15.95L17.9461 23H23.4361L30.0061 1.55H24.3361C24.5161 2.09 24.6061 2.63 24.6061 3.17C24.6061 4.19 24.2761 5.18 23.9761 6.41L21.4261 16.31L17.3761 1.55H10.2661C11.5861 2.75 12.0961 3.71 12.5161 5.06L13.7461 9.35L11.8261 16.85L7.62605 1.55H0.516052C1.83605 2.72 2.34605 3.68 2.73605 5L8.13605 23H13.7761ZM44.917 16.13C44.917 11.33 41.857 7.73 37.057 7.73C32.707 7.73 29.227 10.76 29.227 15.23C29.227 19.79 32.827 23.15 37.387 23.15C39.607 23.15 41.857 21.98 43.657 20.33L41.857 17.75C40.507 19.19 39.427 19.49 38.707 19.49C36.757 19.49 35.587 17.81 35.107 16.13H44.917ZM36.997 10.94C38.047 10.94 38.977 11.69 39.367 13.04H34.957C35.227 11.9 35.857 10.94 36.997 10.94ZM52.4941 22.97V0.469999L45.9541 2.39C46.8241 3.14 47.0941 3.98 47.0941 4.91V22.97H52.4941ZM68.2453 9.62C66.7453 8.39 64.9153 7.73 62.8453 7.73C58.1353 7.73 54.1153 11.15 54.1153 15.95C54.1153 20.69 58.0453 23.15 61.9753 23.15C64.4953 23.15 66.7153 22.13 68.4253 20.27L66.4453 17.72C65.5153 18.98 64.4953 19.67 63.2653 19.67C60.8653 19.67 59.6053 17.03 59.6053 14.75C59.6053 12.53 60.7753 10.85 62.8453 10.85C64.1353 10.85 65.3953 11.54 66.3253 12.65L68.2453 9.62ZM78.3928 7.85C73.6228 7.85 69.7528 11.15 69.7528 15.89C69.7528 20.36 73.2328 23.15 77.5828 23.15C82.3528 23.15 86.2228 19.85 86.2228 15.11C86.2228 10.64 82.7428 7.85 78.3928 7.85ZM78.4528 19.97C76.4128 19.97 75.2128 17 75.2128 14.6C75.2128 12.53 76.0828 11.03 77.5528 11.03C79.5928 11.03 80.7628 13.97 80.7628 16.4C80.7628 18.47 79.8928 19.97 78.4528 19.97ZM93.896 22.97V12.68C94.526 12.08 95.306 11.51 96.026 11.51C97.016 11.51 97.646 12.5 97.646 13.82V23H103.046V12.77C103.676 12.14 104.486 11.51 105.296 11.51C106.286 11.51 106.886 12.5 106.886 13.82V23H112.286V13.7C112.286 10.31 111.176 7.7 107.696 7.7C105.836 7.7 104.306 8.48 102.356 9.92C101.606 8.54 100.526 7.7 98.906 7.7C97.226 7.7 95.546 8.51 93.896 9.74V7.67L87.356 9.59C88.226 10.34 88.496 11.18 88.496 12.11V22.97H93.896ZM129.608 16.13C129.608 11.33 126.548 7.73 121.748 7.73C117.398 7.73 113.918 10.76 113.918 15.23C113.918 19.79 117.518 23.15 122.078 23.15C124.298 23.15 126.548 21.98 128.348 20.33L126.548 17.75C125.198 19.19 124.118 19.49 123.398 19.49C121.448 19.49 120.278 17.81 119.798 16.13H129.608ZM121.688 10.94C122.738 10.94 123.668 11.69 124.058 13.04H119.648C119.918 11.9 120.548 10.94 121.688 10.94ZM139.645 4.82C139.645 6.98 141.355 15.74 143.035 15.74C144.685 15.74 146.425 6.98 146.425 4.82C146.425 2.66 144.685 1.43 143.035 1.43C141.355 1.43 139.645 2.66 139.645 4.82ZM139.645 20.15C139.645 21.38 141.805 23.15 143.035 23.15C144.235 23.15 146.425 21.38 146.425 20.15C146.425 18.92 144.235 17.15 143.035 17.15C141.805 17.15 139.645 18.92 139.645 20.15Z" fill="#113A5D"/>
</svg>
